solid ascii
  facet normal 0.000000e+00 1.000000e+00 0.000000e+00
    outer loop
      vertex   -2.000000e+01 5.000000e+00 0.000000e+00
      vertex   -2.000000e+01 5.000000e+00 -1.000000e+00
      vertex   -2.150000e+01 5.000000e+00 0.000000e+00
    endloop
  endfacet
  facet normal 0.000000e+00 8.320503e-01 0.000000e+00
    outer loop
      vertex   -2.150000e+01 5.000000e+00 0.000000e+00
      vertex   -2.000000e+01 5.000000e+00 -1.000000e+00
      vertex   -2.150000e+01 5.000000e+00 -4.000000e+00
    endloop
  endfacet
  facet normal 0.000000e+00 8.944272e-01 0.000000e+00
    outer loop
      vertex   -2.150000e+01 5.000000e+00 -4.000000e+00
      vertex   -2.000000e+01 5.000000e+00 -1.000000e+00
      vertex   -2.000000e+01 5.000000e+00 -4.000000e+00
    endloop
  endfacet
  facet normal -1.000000e+00 0.000000e+00 0.000000e+00
    outer loop
      vertex   -2.150000e+01 2.000000e+00 0.000000e+00
      vertex   -2.150000e+01 5.000000e+00 0.000000e+00
      vertex   -2.150000e+01 2.000000e+00 -4.000000e+00
    endloop
  endfacet
  facet normal -8.000000e-01 0.000000e+00 0.000000e+00
    outer loop
      vertex   -2.150000e+01 2.000000e+00 -4.000000e+00
      vertex   -2.150000e+01 5.000000e+00 0.000000e+00
      vertex   -2.150000e+01 5.000000e+00 -4.000000e+00
    endloop
  endfacet
  facet normal 1.000000e+00 0.000000e+00 0.000000e+00
    outer loop
      vertex   -2.000000e+01 2.000000e+00 -1.000000e+00
      vertex   -2.000000e+01 5.000000e+00 -1.000000e+00
      vertex   -2.000000e+01 2.000000e+00 0.000000e+00
    endloop
  endfacet
  facet normal 3.162278e-01 -0.000000e+00 0.000000e+00
    outer loop
      vertex   -2.000000e+01 2.000000e+00 0.000000e+00
      vertex   -2.000000e+01 5.000000e+00 -1.000000e+00
      vertex   -2.000000e+01 5.000000e+00 0.000000e+00
    endloop
  endfacet
  facet normal 0.000000e+00 0.000000e+00 1.000000e+00
    outer loop
      vertex   -2.000000e+01 5.000000e+00 0.000000e+00
      vertex   -2.150000e+01 5.000000e+00 0.000000e+00
      vertex   -2.000000e+01 2.000000e+00 0.000000e+00
    endloop
  endfacet
  facet normal 0.000000e+00 0.000000e+00 8.944272e-01
    outer loop
      vertex   -2.000000e+01 2.000000e+00 0.000000e+00
      vertex   -2.150000e+01 5.000000e+00 0.000000e+00
      vertex   -2.150000e+01 2.000000e+00 0.000000e+00
    endloop
  endfacet
  facet normal 1.000000e+00 0.000000e+00 0.000000e+00
    outer loop
      vertex   1.500000e+00 5.000000e+00 0.000000e+00
      vertex   1.500000e+00 2.000000e+00 0.000000e+00
      vertex   1.500000e+00 5.000000e+00 -4.000000e+00
    endloop
  endfacet
  facet normal 8.000000e-01 0.000000e+00 0.000000e+00
    outer loop
      vertex   1.500000e+00 5.000000e+00 -4.000000e+00
      vertex   1.500000e+00 2.000000e+00 0.000000e+00
      vertex   1.500000e+00 2.000000e+00 -4.000000e+00
    endloop
  endfacet
  facet normal -0.000000e+00 1.000000e+00 0.000000e+00
    outer loop
      vertex   0.000000e+00 5.000000e+00 0.000000e+00
      vertex   1.500000e+00 5.000000e+00 0.000000e+00
      vertex   0.000000e+00 5.000000e+00 -1.000000e+00
    endloop
  endfacet
  facet normal -0.000000e+00 9.922779e-01 0.000000e+00
    outer loop
      vertex   0.000000e+00 5.000000e+00 -1.000000e+00
      vertex   1.500000e+00 5.000000e+00 0.000000e+00
      vertex   1.500000e+00 5.000000e+00 -4.000000e+00
    endloop
  endfacet
  facet normal 0.000000e+00 4.472136e-01 0.000000e+00
    outer loop
      vertex   0.000000e+00 5.000000e+00 -1.000000e+00
      vertex   1.500000e+00 5.000000e+00 -4.000000e+00
      vertex   0.000000e+00 5.000000e+00 -4.000000e+00
    endloop
  endfacet
  facet normal -1.000000e+00 0.000000e+00 0.000000e+00
    outer loop
      vertex   0.000000e+00 5.000000e+00 -1.000000e+00
      vertex   0.000000e+00 2.000000e+00 -1.000000e+00
      vertex   0.000000e+00 5.000000e+00 0.000000e+00
    endloop
  endfacet
  facet normal -3.162278e-01 -0.000000e+00 0.000000e+00
    outer loop
      vertex   0.000000e+00 5.000000e+00 0.000000e+00
      vertex   0.000000e+00 2.000000e+00 -1.000000e+00
      vertex   0.000000e+00 2.000000e+00 0.000000e+00
    endloop
  endfacet
  facet normal 0.000000e+00 0.000000e+00 1.000000e+00
    outer loop
      vertex   0.000000e+00 2.000000e+00 0.000000e+00
      vertex   1.500000e+00 2.000000e+00 0.000000e+00
      vertex   0.000000e+00 5.000000e+00 0.000000e+00
    endloop
  endfacet
  facet normal -0.000000e+00 0.000000e+00 8.944272e-01
    outer loop
      vertex   0.000000e+00 5.000000e+00 0.000000e+00
      vertex   1.500000e+00 2.000000e+00 0.000000e+00
      vertex   1.500000e+00 5.000000e+00 0.000000e+00
    endloop
  endfacet
  facet normal -0.000000e+00 -1.000000e+00 -0.000000e+00
    outer loop
      vertex   0.000000e+00 1.000000e+01 0.000000e+00
      vertex   -2.000000e+01 1.000000e+01 0.000000e+00
      vertex   0.000000e+00 1.000000e+01 -1.000000e+00
    endloop
  endfacet
  facet normal 0.000000e+00 -4.993762e-02 0.000000e+00
    outer loop
      vertex   0.000000e+00 1.000000e+01 -1.000000e+00
      vertex   -2.000000e+01 1.000000e+01 0.000000e+00
      vertex   -2.000000e+01 1.000000e+01 -1.000000e+00
    endloop
  endfacet
  facet normal -0.000000e+00 -0.000000e+00 -1.000000e+00
    outer loop
      vertex   -1.000000e+00 8.500000e+00 -3.000000e+00
      vertex   -1.000000e+00 5.500000e+00 -3.000000e+00
      vertex   -1.900000e+01 8.500000e+00 -3.000000e+00
    endloop
  endfacet
  facet normal 0.000000e+00 0.000000e+00 -9.863939e-01
    outer loop
      vertex   -1.900000e+01 8.500000e+00 -3.000000e+00
      vertex   -1.000000e+00 5.500000e+00 -3.000000e+00
      vertex   -1.900000e+01 5.500000e+00 -3.000000e+00
    endloop
  endfacet
  facet normal 7.071068e-01 0.000000e+00 -7.071068e-01
    outer loop
      vertex   0.000000e+00 5.500000e+00 -2.000000e+00
      vertex   -1.000000e+00 5.500000e+00 -3.000000e+00
      vertex   0.000000e+00 8.500000e+00 -2.000000e+00
    endloop
  endfacet
  facet normal 6.396021e-01 0.000000e+00 -6.396021e-01
    outer loop
      vertex   0.000000e+00 8.500000e+00 -2.000000e+00
      vertex   -1.000000e+00 5.500000e+00 -3.000000e+00
      vertex   -1.000000e+00 8.500000e+00 -3.000000e+00
    endloop
  endfacet
  facet normal 0.000000e+00 0.000000e+00 -1.000000e+00
    outer loop
      vertex   -2.000000e+01 2.550000e+01 1.500000e+00
      vertex   -2.000000e+01 2.850000e+01 1.500000e+00
      vertex   -1.700000e+01 2.550000e+01 1.500000e+00
    endloop
  endfacet
  facet normal 0.000000e+00 0.000000e+00 -7.071068e-01
    outer loop
      vertex   -1.700000e+01 2.550000e+01 1.500000e+00
      vertex   -2.000000e+01 2.850000e+01 1.500000e+00
      vertex   -1.700000e+01 2.850000e+01 1.500000e+00
    endloop
  endfacet
  facet normal 0.000000e+00 -1.381960e-01 0.000000e+00
    outer loop
      vertex   -2.000000e+01 2.000000e+00 -1.000000e+00
      vertex   1.500000e+00 2.000000e+00 -4.000000e+00
      vertex   0.000000e+00 2.000000e+00 -1.000000e+00
    endloop
  endfacet
  facet normal 0.000000e+00 -9.922779e-01 0.000000e+00
    outer loop
      vertex   0.000000e+00 2.000000e+00 -1.000000e+00
      vertex   1.500000e+00 2.000000e+00 -4.000000e+00
      vertex   1.500000e+00 2.000000e+00 0.000000e+00
    endloop
  endfacet
  facet normal 0.000000e+00 -8.320503e-01 0.000000e+00
    outer loop
      vertex   0.000000e+00 2.000000e+00 -1.000000e+00
      vertex   1.500000e+00 2.000000e+00 0.000000e+00
      vertex   0.000000e+00 2.000000e+00 0.000000e+00
    endloop
  endfacet
  facet normal -0.000000e+00 -1.000000e+00 -0.000000e+00
    outer loop
      vertex   -2.000000e+01 2.000000e+00 0.000000e+00
      vertex   -2.150000e+01 2.000000e+00 0.000000e+00
      vertex   -2.000000e+01 2.000000e+00 -1.000000e+00
    endloop
  endfacet
  facet normal -0.000000e+00 -9.922779e-01 0.000000e+00
    outer loop
      vertex   -2.000000e+01 2.000000e+00 -1.000000e+00
      vertex   -2.150000e+01 2.000000e+00 0.000000e+00
      vertex   -2.150000e+01 2.000000e+00 -4.000000e+00
    endloop
  endfacet
  facet normal 0.000000e+00 -9.476482e-01 -0.000000e+00
    outer loop
      vertex   -2.000000e+01 2.000000e+00 -1.000000e+00
      vertex   -2.150000e+01 2.000000e+00 -4.000000e+00
      vertex   1.500000e+00 2.000000e+00 -4.000000e+00
    endloop
  endfacet
  facet normal 0.000000e+00 0.000000e+00 -1.000000e+00
    outer loop
      vertex   -2.000000e+01 5.500000e+00 -4.000000e+00
      vertex   0.000000e+00 5.500000e+00 -4.000000e+00
      vertex   -2.000000e+01 5.000000e+00 -4.000000e+00
    endloop
  endfacet
  facet normal 0.000000e+00 0.000000e+00 -2.499219e-02
    outer loop
      vertex   -2.000000e+01 5.000000e+00 -4.000000e+00
      vertex   0.000000e+00 5.500000e+00 -4.000000e+00
      vertex   0.000000e+00 5.000000e+00 -4.000000e+00
    endloop
  endfacet
  facet normal 0.000000e+00 -0.000000e+00 -8.944272e-01
    outer loop
      vertex   -2.000000e+01 5.000000e+00 -4.000000e+00
      vertex   0.000000e+00 5.000000e+00 -4.000000e+00
      vertex   -2.150000e+01 2.000000e+00 -4.000000e+00
    endloop
  endfacet
  facet normal 0.000000e+00 0.000000e+00 -1.381960e-01
    outer loop
      vertex   -2.150000e+01 2.000000e+00 -4.000000e+00
      vertex   0.000000e+00 5.000000e+00 -4.000000e+00
      vertex   1.500000e+00 2.000000e+00 -4.000000e+00
    endloop
  endfacet
  facet normal 0.000000e+00 0.000000e+00 -4.472136e-01
    outer loop
      vertex   1.500000e+00 2.000000e+00 -4.000000e+00
      vertex   0.000000e+00 5.000000e+00 -4.000000e+00
      vertex   1.500000e+00 5.000000e+00 -4.000000e+00
    endloop
  endfacet
  facet normal 0.000000e+00 0.000000e+00 -4.472136e-01
    outer loop
      vertex   -2.150000e+01 2.000000e+00 -4.000000e+00
      vertex   -2.150000e+01 5.000000e+00 -4.000000e+00
      vertex   -2.000000e+01 5.000000e+00 -4.000000e+00
    endloop
  endfacet
  facet normal 0.000000e+00 7.071068e-01 0.000000e+00
    outer loop
      vertex   -2.000000e+01 5.500000e+00 -2.000000e+00
      vertex   -1.900000e+01 5.500000e+00 -3.000000e+00
      vertex   -2.000000e+01 5.500000e+00 -4.000000e+00
    endloop
  endfacet
  facet normal 0.000000e+00 6.689647e-01 0.000000e+00
    outer loop
      vertex   -2.000000e+01 5.500000e+00 -4.000000e+00
      vertex   -1.900000e+01 5.500000e+00 -3.000000e+00
      vertex   -1.000000e+00 5.500000e+00 -3.000000e+00
    endloop
  endfacet
  facet normal 0.000000e+00 5.255883e-02 0.000000e+00
    outer loop
      vertex   -2.000000e+01 5.500000e+00 -4.000000e+00
      vertex   -1.000000e+00 5.500000e+00 -3.000000e+00
      vertex   0.000000e+00 5.500000e+00 -4.000000e+00
    endloop
  endfacet
  facet normal 0.000000e+00 7.071068e-01 -0.000000e+00
    outer loop
      vertex   0.000000e+00 5.500000e+00 -4.000000e+00
      vertex   -1.000000e+00 5.500000e+00 -3.000000e+00
      vertex   0.000000e+00 5.500000e+00 -2.000000e+00
    endloop
  endfacet
  facet normal -7.071068e-01 -0.000000e+00 -7.071068e-01
    outer loop
      vertex   -2.000000e+01 8.500000e+00 -2.000000e+00
      vertex   -1.900000e+01 8.500000e+00 -3.000000e+00
      vertex   -2.000000e+01 5.500000e+00 -2.000000e+00
    endloop
  endfacet
  facet normal -6.396021e-01 0.000000e+00 -6.396021e-01
    outer loop
      vertex   -2.000000e+01 5.500000e+00 -2.000000e+00
      vertex   -1.900000e+01 8.500000e+00 -3.000000e+00
      vertex   -1.900000e+01 5.500000e+00 -3.000000e+00
    endloop
  endfacet
  facet normal 0.000000e+00 -7.071068e-01 0.000000e+00
    outer loop
      vertex   -2.000000e+01 8.500000e+00 -2.000000e+00
      vertex   -2.000000e+01 8.500000e+00 -4.000000e+00
      vertex   -1.900000e+01 8.500000e+00 -3.000000e+00
    endloop
  endfacet
  facet normal 0.000000e+00 -7.071068e-01 -0.000000e+00
    outer loop
      vertex   -1.900000e+01 8.500000e+00 -3.000000e+00
      vertex   -2.000000e+01 8.500000e+00 -4.000000e+00
      vertex   -1.000000e+00 8.500000e+00 -3.000000e+00
    endloop
  endfacet
  facet normal 0.000000e+00 -7.432941e-01 -0.000000e+00
    outer loop
      vertex   -1.000000e+00 8.500000e+00 -3.000000e+00
      vertex   -2.000000e+01 8.500000e+00 -4.000000e+00
      vertex   0.000000e+00 8.500000e+00 -4.000000e+00
    endloop
  endfacet
  facet normal 0.000000e+00 -1.000000e+00 0.000000e+00
    outer loop
      vertex   -1.000000e+00 8.500000e+00 -3.000000e+00
      vertex   0.000000e+00 8.500000e+00 -4.000000e+00
      vertex   0.000000e+00 8.500000e+00 -2.000000e+00
    endloop
  endfacet
  facet normal 0.000000e+00 0.000000e+00 -7.527224e-01
    outer loop
      vertex   -2.000000e+01 8.500000e+00 -4.000000e+00
      vertex   -9.941394e+00 2.000069e+01 -4.000000e+00
      vertex   0.000000e+00 8.500000e+00 -4.000000e+00
    endloop
  endfacet
  facet normal 0.000000e+00 0.000000e+00 -1.245691e-02
    outer loop
      vertex   0.000000e+00 8.500000e+00 -4.000000e+00
      vertex   -9.941394e+00 2.000069e+01 -4.000000e+00
      vertex   -9.707612e+00 2.001716e+01 -4.000000e+00
    endloop
  endfacet
  facet normal 0.000000e+00 0.000000e+00 -1.348122e-02
    outer loop
      vertex   0.000000e+00 8.500000e+00 -4.000000e+00
      vertex   -9.707612e+00 2.001716e+01 -4.000000e+00
      vertex   -9.476399e+00 2.005545e+01 -4.000000e+00
    endloop
  endfacet
  facet normal 0.000000e+00 0.000000e+00 -6.875988e-01
    outer loop
      vertex   -2.000000e+01 3.000000e+01 -4.000000e+00
      vertex   -1.245616e+01 2.203385e+01 -4.000000e+00
      vertex   -2.000000e+01 8.500000e+00 -4.000000e+00
    endloop
  endfacet
  facet normal 0.000000e+00 0.000000e+00 -1.034670e-02
    outer loop
      vertex   -2.000000e+01 8.500000e+00 -4.000000e+00
      vertex   -1.245616e+01 2.203385e+01 -4.000000e+00
      vertex   -1.240171e+01 2.180590e+01 -4.000000e+00
    endloop
  endfacet
  facet normal 0.000000e+00 0.000000e+00 -1.157804e-02
    outer loop
      vertex   -2.000000e+01 8.500000e+00 -4.000000e+00
      vertex   -1.240171e+01 2.180590e+01 -4.000000e+00
      vertex   -1.232616e+01 2.158405e+01 -4.000000e+00
    endloop
  endfacet
  facet normal -0.000000e+00 0.000000e+00 -4.493682e-01
    outer loop
      vertex   0.000000e+00 3.000000e+01 -4.000000e+00
      vertex   -9.941394e+00 2.499931e+01 -4.000000e+00
      vertex   -2.000000e+01 3.000000e+01 -4.000000e+00
    endloop
  endfacet
  facet normal 0.000000e+00 0.000000e+00 -9.905739e-03
    outer loop
      vertex   -2.000000e+01 3.000000e+01 -4.000000e+00
      vertex   -9.941394e+00 2.499931e+01 -4.000000e+00
      vertex   -1.017569e+01 2.499382e+01 -4.000000e+00
    endloop
  endfacet
  facet normal 0.000000e+00 0.000000e+00 -1.201018e-02
    outer loop
      vertex   -2.000000e+01 3.000000e+01 -4.000000e+00
      vertex   -1.017569e+01 2.499382e+01 -4.000000e+00
      vertex   -1.040844e+01 2.496641e+01 -4.000000e+00
    endloop
  endfacet
  facet normal 0.000000e+00 0.000000e+00 -4.912506e-01
    outer loop
      vertex   0.000000e+00 8.500000e+00 -4.000000e+00
      vertex   -7.568393e+00 2.191924e+01 -4.000000e+00
      vertex   0.000000e+00 3.000000e+01 -4.000000e+00
    endloop
  endfacet
  facet normal 0.000000e+00 0.000000e+00 -1.154116e-02
    outer loop
      vertex   0.000000e+00 3.000000e+01 -4.000000e+00
      vertex   -7.568393e+00 2.191924e+01 -4.000000e+00
      vertex   -7.524693e+00 2.214949e+01 -4.000000e+00
    endloop
  endfacet
  facet normal 0.000000e+00 0.000000e+00 -1.361938e-02
    outer loop
      vertex   0.000000e+00 3.000000e+01 -4.000000e+00
      vertex   -7.524693e+00 2.214949e+01 -4.000000e+00
      vertex   -7.502748e+00 2.238282e+01 -4.000000e+00
    endloop
  endfacet
  facet normal -0.000000e+00 0.000000e+00 -7.505364e-01
    outer loop
      vertex   -1.248901e+01 2.273410e+01 -4.000000e+00
      vertex   -1.250000e+01 2.250000e+01 -4.000000e+00
      vertex   -2.000000e+01 3.000000e+01 -4.000000e+00
    endloop
  endfacet
  facet normal 0.000000e+00 0.000000e+00 -1.463389e-02
    outer loop
      vertex   -2.000000e+01 3.000000e+01 -4.000000e+00
      vertex   -1.250000e+01 2.250000e+01 -4.000000e+00
      vertex   -1.248901e+01 2.226590e+01 -4.000000e+00
    endloop
  endfacet
  facet normal 0.000000e+00 0.000000e+00 -1.258659e-02
    outer loop
      vertex   -2.000000e+01 3.000000e+01 -4.000000e+00
      vertex   -1.248901e+01 2.226590e+01 -4.000000e+00
      vertex   -1.245616e+01 2.203385e+01 -4.000000e+00
    endloop
  endfacet
  facet normal 0.000000e+00 -0.000000e+00 -8.148333e-01
    outer loop
      vertex   -1.232616e+01 2.158405e+01 -4.000000e+00
      vertex   -1.223017e+01 2.137025e+01 -4.000000e+00
      vertex   -2.000000e+01 8.500000e+00 -4.000000e+00
    endloop
  endfacet
  facet normal 0.000000e+00 0.000000e+00 -1.369425e-02
    outer loop
      vertex   -2.000000e+01 8.500000e+00 -4.000000e+00
      vertex   -1.223017e+01 2.137025e+01 -4.000000e+00
      vertex   -1.211458e+01 2.116638e+01 -4.000000e+00
    endloop
  endfacet
  facet normal 0.000000e+00 0.000000e+00 -1.452878e-02
    outer loop
      vertex   -2.000000e+01 8.500000e+00 -4.000000e+00
      vertex   -1.211458e+01 2.116638e+01 -4.000000e+00
      vertex   -1.198041e+01 2.097422e+01 -4.000000e+00
    endloop
  endfacet
  facet normal 0.000000e+00 -0.000000e+00 -9.564838e-01
    outer loop
      vertex   -1.198041e+01 2.097422e+01 -4.000000e+00
      vertex   -1.182883e+01 2.079548e+01 -4.000000e+00
      vertex   -2.000000e+01 8.500000e+00 -4.000000e+00
    endloop
  endfacet
  facet normal 0.000000e+00 0.000000e+00 -1.564209e-02
    outer loop
      vertex   -2.000000e+01 8.500000e+00 -4.000000e+00
      vertex   -1.182883e+01 2.079548e+01 -4.000000e+00
      vertex   -1.166118e+01 2.063172e+01 -4.000000e+00
    endloop
  endfacet
  facet normal 0.000000e+00 0.000000e+00 -1.588957e-02
    outer loop
      vertex   -2.000000e+01 8.500000e+00 -4.000000e+00
      vertex   -1.166118e+01 2.063172e+01 -4.000000e+00
      vertex   -1.147893e+01 2.048437e+01 -4.000000e+00
    endloop
  endfacet
  facet normal 0.000000e+00 -0.000000e+00 -9.994891e-01
    outer loop
      vertex   -1.147893e+01 2.048437e+01 -4.000000e+00
      vertex   -1.128369e+01 2.035474e+01 -4.000000e+00
      vertex   -2.000000e+01 8.500000e+00 -4.000000e+00
    endloop
  endfacet
  facet normal 0.000000e+00 0.000000e+00 -1.573071e-02
    outer loop
      vertex   -2.000000e+01 8.500000e+00 -4.000000e+00
      vertex   -1.128369e+01 2.035474e+01 -4.000000e+00
      vertex   -1.107716e+01 2.024396e+01 -4.000000e+00
    endloop
  endfacet
  facet normal 0.000000e+00 0.000000e+00 -1.532886e-02
    outer loop
      vertex   -2.000000e+01 8.500000e+00 -4.000000e+00
      vertex   -1.107716e+01 2.024396e+01 -4.000000e+00
      vertex   -1.086117e+01 2.015300e+01 -4.000000e+00
    endloop
  endfacet
  facet normal 0.000000e+00 -0.000000e+00 -9.357974e-01
    outer loop
      vertex   -1.086117e+01 2.015300e+01 -4.000000e+00
      vertex   -1.063761e+01 2.008268e+01 -4.000000e+00
      vertex   -2.000000e+01 8.500000e+00 -4.000000e+00
    endloop
  endfacet
  facet normal 0.000000e+00 0.000000e+00 -1.393788e-02
    outer loop
      vertex   -2.000000e+01 8.500000e+00 -4.000000e+00
      vertex   -1.063761e+01 2.008268e+01 -4.000000e+00
      vertex   -1.040844e+01 2.003359e+01 -4.000000e+00
    endloop
  endfacet
  facet normal 0.000000e+00 0.000000e+00 -1.298645e-02
    outer loop
      vertex   -2.000000e+01 8.500000e+00 -4.000000e+00
      vertex   -1.040844e+01 2.003359e+01 -4.000000e+00
      vertex   -1.017569e+01 2.000618e+01 -4.000000e+00
    endloop
  endfacet
  facet normal 0.000000e+00 -0.000000e+00 -7.755165e-01
    outer loop
      vertex   -1.017569e+01 2.000618e+01 -4.000000e+00
      vertex   -9.941394e+00 2.000069e+01 -4.000000e+00
      vertex   -2.000000e+01 8.500000e+00 -4.000000e+00
    endloop
  endfacet
  facet normal 0.000000e+00 0.000000e+00 -9.093934e-01
    outer loop
      vertex   -9.476399e+00 2.005545e+01 -4.000000e+00
      vertex   -9.249788e+00 2.011522e+01 -4.000000e+00
      vertex   0.000000e+00 8.500000e+00 -4.000000e+00
    endloop
  endfacet
  facet normal 0.000000e+00 0.000000e+00 -1.505148e-02
    outer loop
      vertex   0.000000e+00 8.500000e+00 -4.000000e+00
      vertex   -9.249788e+00 2.011522e+01 -4.000000e+00
      vertex   -9.029770e+00 2.019595e+01 -4.000000e+00
    endloop
  endfacet
  facet normal 0.000000e+00 0.000000e+00 -1.555584e-02
    outer loop
      vertex   0.000000e+00 8.500000e+00 -4.000000e+00
      vertex   -9.029770e+00 2.019595e+01 -4.000000e+00
      vertex   -8.818278e+00 2.029693e+01 -4.000000e+00
    endloop
  endfacet
  facet normal 0.000000e+00 0.000000e+00 -9.947337e-01
    outer loop
      vertex   -8.818278e+00 2.029693e+01 -4.000000e+00
      vertex   -8.617172e+00 2.041726e+01 -4.000000e+00
      vertex   0.000000e+00 8.500000e+00 -4.000000e+00
    endloop
  endfacet
  facet normal 0.000000e+00 0.000000e+00 -1.593188e-02
    outer loop
      vertex   0.000000e+00 8.500000e+00 -4.000000e+00
      vertex   -8.617172e+00 2.041726e+01 -4.000000e+00
      vertex   -8.428218e+00 2.055591e+01 -4.000000e+00
    endloop
  endfacet
  facet normal 0.000000e+00 0.000000e+00 -1.579266e-02
    outer loop
      vertex   0.000000e+00 8.500000e+00 -4.000000e+00
      vertex   -8.428218e+00 2.055591e+01 -4.000000e+00
      vertex   -8.253077e+00 2.071163e+01 -4.000000e+00
    endloop
  endfacet
  facet normal 0.000000e+00 0.000000e+00 -9.745156e-01
    outer loop
      vertex   -8.253077e+00 2.071163e+01 -4.000000e+00
      vertex   -8.093287e+00 2.088308e+01 -4.000000e+00
      vertex   0.000000e+00 8.500000e+00 -4.000000e+00
    endloop
  endfacet
  facet normal 0.000000e+00 0.000000e+00 -1.488007e-02
    outer loop
      vertex   0.000000e+00 8.500000e+00 -4.000000e+00
      vertex   -8.093287e+00 2.088308e+01 -4.000000e+00
      vertex   -7.950254e+00 2.106873e+01 -4.000000e+00
    endloop
  endfacet
  facet normal 0.000000e+00 0.000000e+00 -1.413264e-02
    outer loop
      vertex   0.000000e+00 8.500000e+00 -4.000000e+00
      vertex   -7.950254e+00 2.106873e+01 -4.000000e+00
      vertex   -7.825234e+00 2.126696e+01 -4.000000e+00
    endloop
  endfacet
  facet normal 0.000000e+00 0.000000e+00 -8.514615e-01
    outer loop
      vertex   -7.825234e+00 2.126696e+01 -4.000000e+00
      vertex   -7.719326e+00 2.147602e+01 -4.000000e+00
      vertex   0.000000e+00 8.500000e+00 -4.000000e+00
    endloop
  endfacet
  facet normal 0.000000e+00 0.000000e+00 -1.215518e-02
    outer loop
      vertex   0.000000e+00 8.500000e+00 -4.000000e+00
      vertex   -7.719326e+00 2.147602e+01 -4.000000e+00
      vertex   -7.633461e+00 2.169409e+01 -4.000000e+00
    endloop
  endfacet
  facet normal 0.000000e+00 0.000000e+00 -1.097406e-02
    outer loop
      vertex   0.000000e+00 8.500000e+00 -4.000000e+00
      vertex   -7.633461e+00 2.169409e+01 -4.000000e+00
      vertex   -7.568393e+00 2.191924e+01 -4.000000e+00
    endloop
  endfacet
  facet normal 0.000000e+00 0.000000e+00 -7.017351e-01
    outer loop
      vertex   -7.502748e+00 2.238282e+01 -4.000000e+00
      vertex   -7.502748e+00 2.261718e+01 -4.000000e+00
      vertex   0.000000e+00 3.000000e+01 -4.000000e+00
    endloop
  endfacet
  facet normal 0.000000e+00 0.000000e+00 -1.750615e-02
    outer loop
      vertex   0.000000e+00 3.000000e+01 -4.000000e+00
      vertex   -7.502748e+00 2.261718e+01 -4.000000e+00
      vertex   -7.524693e+00 2.285051e+01 -4.000000e+00
    endloop
  endfacet
  facet normal 0.000000e+00 0.000000e+00 -1.921296e-02
    outer loop
      vertex   0.000000e+00 3.000000e+01 -4.000000e+00
      vertex   -7.524693e+00 2.285051e+01 -4.000000e+00
      vertex   -7.568393e+00 2.308076e+01 -4.000000e+00
    endloop
  endfacet
  facet normal 0.000000e+00 0.000000e+00 -8.963706e-01
    outer loop
      vertex   -7.568393e+00 2.308076e+01 -4.000000e+00
      vertex   -7.633461e+00 2.330591e+01 -4.000000e+00
      vertex   0.000000e+00 3.000000e+01 -4.000000e+00
    endloop
  endfacet
  facet normal 0.000000e+00 0.000000e+00 -2.189016e-02
    outer loop
      vertex   0.000000e+00 3.000000e+01 -4.000000e+00
      vertex   -7.633461e+00 2.330591e+01 -4.000000e+00
      vertex   -7.719326e+00 2.352398e+01 -4.000000e+00
    endloop
  endfacet
  facet normal 0.000000e+00 0.000000e+00 -2.276568e-02
    outer loop
      vertex   0.000000e+00 3.000000e+01 -4.000000e+00
      vertex   -7.719326e+00 2.352398e+01 -4.000000e+00
      vertex   -7.825234e+00 2.373304e+01 -4.000000e+00
    endloop
  endfacet
  facet normal 0.000000e+00 0.000000e+00 -9.936678e-01
    outer loop
      vertex   -7.825234e+00 2.373304e+01 -4.000000e+00
      vertex   -7.950254e+00 2.393127e+01 -4.000000e+00
      vertex   0.000000e+00 3.000000e+01 -4.000000e+00
    endloop
  endfacet
  facet normal 0.000000e+00 0.000000e+00 -2.342279e-02
    outer loop
      vertex   0.000000e+00 3.000000e+01 -4.000000e+00
      vertex   -7.950254e+00 2.393127e+01 -4.000000e+00
      vertex   -8.093287e+00 2.411692e+01 -4.000000e+00
    endloop
  endfacet
  facet normal 0.000000e+00 0.000000e+00 -2.317782e-02
    outer loop
      vertex   0.000000e+00 3.000000e+01 -4.000000e+00
      vertex   -8.093287e+00 2.411692e+01 -4.000000e+00
      vertex   -8.253077e+00 2.428837e+01 -4.000000e+00
    endloop
  endfacet
  facet normal 0.000000e+00 0.000000e+00 -9.716616e-01
    outer loop
      vertex   -8.253077e+00 2.428837e+01 -4.000000e+00
      vertex   -8.428218e+00 2.444409e+01 -4.000000e+00
      vertex   0.000000e+00 3.000000e+01 -4.000000e+00
    endloop
  endfacet
  facet normal 0.000000e+00 0.000000e+00 -2.158959e-02
    outer loop
      vertex   0.000000e+00 3.000000e+01 -4.000000e+00
      vertex   -8.428218e+00 2.444409e+01 -4.000000e+00
      vertex   -8.617172e+00 2.458274e+01 -4.000000e+00
    endloop
  endfacet
  facet normal 0.000000e+00 0.000000e+00 -2.030868e-02
    outer loop
      vertex   0.000000e+00 3.000000e+01 -4.000000e+00
      vertex   -8.617172e+00 2.458274e+01 -4.000000e+00
      vertex   -8.818278e+00 2.470307e+01 -4.000000e+00
    endloop
  endfacet
  facet normal 0.000000e+00 0.000000e+00 -8.340288e-01
    outer loop
      vertex   -8.818278e+00 2.470307e+01 -4.000000e+00
      vertex   -9.029770e+00 2.480405e+01 -4.000000e+00
      vertex   0.000000e+00 3.000000e+01 -4.000000e+00
    endloop
  endfacet
  facet normal 0.000000e+00 0.000000e+00 -1.700147e-02
    outer loop
      vertex   0.000000e+00 3.000000e+01 -4.000000e+00
      vertex   -9.029770e+00 2.480405e+01 -4.000000e+00
      vertex   -9.249788e+00 2.488478e+01 -4.000000e+00
    endloop
  endfacet
  facet normal 0.000000e+00 0.000000e+00 -1.508050e-02
    outer loop
      vertex   0.000000e+00 3.000000e+01 -4.000000e+00
      vertex   -9.249788e+00 2.488478e+01 -4.000000e+00
      vertex   -9.476399e+00 2.494455e+01 -4.000000e+00
    endloop
  endfacet
  facet normal 0.000000e+00 0.000000e+00 -6.085130e-01
    outer loop
      vertex   -9.476399e+00 2.494455e+01 -4.000000e+00
      vertex   -9.707612e+00 2.498284e+01 -4.000000e+00
      vertex   0.000000e+00 3.000000e+01 -4.000000e+00
    endloop
  endfacet
  facet normal 0.000000e+00 0.000000e+00 -1.096022e-02
    outer loop
      vertex   0.000000e+00 3.000000e+01 -4.000000e+00
      vertex   -9.707612e+00 2.498284e+01 -4.000000e+00
      vertex   -9.941394e+00 2.499931e+01 -4.000000e+00
    endloop
  endfacet
  facet normal -0.000000e+00 0.000000e+00 -6.398416e-01
    outer loop
      vertex   -1.040844e+01 2.496641e+01 -4.000000e+00
      vertex   -1.063761e+01 2.491732e+01 -4.000000e+00
      vertex   -2.000000e+01 3.000000e+01 -4.000000e+00
    endloop
  endfacet
  facet normal 0.000000e+00 0.000000e+00 -1.605773e-02
    outer loop
      vertex   -2.000000e+01 3.000000e+01 -4.000000e+00
      vertex   -1.063761e+01 2.491732e+01 -4.000000e+00
      vertex   -1.086117e+01 2.484700e+01 -4.000000e+00
    endloop
  endfacet
  facet normal 0.000000e+00 0.000000e+00 -1.790523e-02
    outer loop
      vertex   -2.000000e+01 3.000000e+01 -4.000000e+00
      vertex   -1.086117e+01 2.484700e+01 -4.000000e+00
      vertex   -1.107716e+01 2.475604e+01 -4.000000e+00
    endloop
  endfacet
  facet normal -0.000000e+00 0.000000e+00 -8.540217e-01
    outer loop
      vertex   -1.107716e+01 2.475604e+01 -4.000000e+00
      vertex   -1.128369e+01 2.464526e+01 -4.000000e+00
      vertex   -2.000000e+01 3.000000e+01 -4.000000e+00
    endloop
  endfacet
  facet normal 0.000000e+00 0.000000e+00 -2.098531e-02
    outer loop
      vertex   -2.000000e+01 3.000000e+01 -4.000000e+00
      vertex   -1.128369e+01 2.464526e+01 -4.000000e+00
      vertex   -1.147893e+01 2.451563e+01 -4.000000e+00
    endloop
  endfacet
  facet normal 0.000000e+00 0.000000e+00 -2.211564e-02
    outer loop
      vertex   -2.000000e+01 3.000000e+01 -4.000000e+00
      vertex   -1.147893e+01 2.451563e+01 -4.000000e+00
      vertex   -1.166118e+01 2.436828e+01 -4.000000e+00
    endloop
  endfacet
  facet normal -0.000000e+00 0.000000e+00 -9.794413e-01
    outer loop
      vertex   -1.166118e+01 2.436828e+01 -4.000000e+00
      vertex   -1.182883e+01 2.420452e+01 -4.000000e+00
      vertex   -2.000000e+01 3.000000e+01 -4.000000e+00
    endloop
  endfacet
  facet normal 0.000000e+00 0.000000e+00 -2.334795e-02
    outer loop
      vertex   -2.000000e+01 3.000000e+01 -4.000000e+00
      vertex   -1.182883e+01 2.420452e+01 -4.000000e+00
      vertex   -1.198041e+01 2.402578e+01 -4.000000e+00
    endloop
  endfacet
  facet normal 0.000000e+00 0.000000e+00 -2.340121e-02
    outer loop
      vertex   -2.000000e+01 3.000000e+01 -4.000000e+00
      vertex   -1.198041e+01 2.402578e+01 -4.000000e+00
      vertex   -1.211458e+01 2.383362e+01 -4.000000e+00
    endloop
  endfacet
  facet normal -0.000000e+00 0.000000e+00 -9.890852e-01
    outer loop
      vertex   -1.211458e+01 2.383362e+01 -4.000000e+00
      vertex   -1.223017e+01 2.362975e+01 -4.000000e+00
      vertex   -2.000000e+01 3.000000e+01 -4.000000e+00
    endloop
  endfacet
  facet normal 0.000000e+00 0.000000e+00 -2.237075e-02
    outer loop
      vertex   -2.000000e+01 3.000000e+01 -4.000000e+00
      vertex   -1.223017e+01 2.362975e+01 -4.000000e+00
      vertex   -1.232616e+01 2.341595e+01 -4.000000e+00
    endloop
  endfacet
  facet normal 0.000000e+00 0.000000e+00 -2.132865e-02
    outer loop
      vertex   -2.000000e+01 3.000000e+01 -4.000000e+00
      vertex   -1.232616e+01 2.341595e+01 -4.000000e+00
      vertex   -1.240171e+01 2.319410e+01 -4.000000e+00
    endloop
  endfacet
  facet normal -0.000000e+00 0.000000e+00 -8.794957e-01
    outer loop
      vertex   -1.240171e+01 2.319410e+01 -4.000000e+00
      vertex   -1.245616e+01 2.296615e+01 -4.000000e+00
      vertex   -2.000000e+01 3.000000e+01 -4.000000e+00
    endloop
  endfacet
  facet normal 0.000000e+00 0.000000e+00 -1.838473e-02
    outer loop
      vertex   -2.000000e+01 3.000000e+01 -4.000000e+00
      vertex   -1.245616e+01 2.296615e+01 -4.000000e+00
      vertex   -1.248901e+01 2.273410e+01 -4.000000e+00
    endloop
  endfacet
  facet normal -0.000000e+00 0.000000e+00 1.000000e+00
    outer loop
      vertex   -2.000000e+01 3.000000e+01 3.000000e+00
      vertex   -2.000000e+01 2.400000e+01 3.000000e+00
      vertex   -1.700000e+01 3.000000e+01 3.000000e+00
    endloop
  endfacet
  facet normal 0.000000e+00 0.000000e+00 4.472136e-01
    outer loop
      vertex   -1.700000e+01 3.000000e+01 3.000000e+00
      vertex   -2.000000e+01 2.400000e+01 3.000000e+00
      vertex   -1.700000e+01 2.400000e+01 3.000000e+00
    endloop
  endfacet
  facet normal 0.000000e+00 -1.000000e+00 0.000000e+00
    outer loop
      vertex   -2.000000e+01 2.400000e+01 3.000000e+00
      vertex   -2.000000e+01 2.400000e+01 0.000000e+00
      vertex   -1.700000e+01 2.400000e+01 3.000000e+00
    endloop
  endfacet
  facet normal 0.000000e+00 -7.071068e-01 -0.000000e+00
    outer loop
      vertex   -1.700000e+01 2.400000e+01 3.000000e+00
      vertex   -2.000000e+01 2.400000e+01 0.000000e+00
      vertex   -1.700000e+01 2.400000e+01 0.000000e+00
    endloop
  endfacet
  facet normal 0.000000e+00 1.000000e+00 0.000000e+00
    outer loop
      vertex   -2.000000e+01 2.550000e+01 0.000000e+00
      vertex   -2.000000e+01 2.550000e+01 1.500000e+00
      vertex   -1.700000e+01 2.550000e+01 0.000000e+00
    endloop
  endfacet
  facet normal 0.000000e+00 8.944272e-01 -0.000000e+00
    outer loop
      vertex   -1.700000e+01 2.550000e+01 0.000000e+00
      vertex   -2.000000e+01 2.550000e+01 1.500000e+00
      vertex   -1.700000e+01 2.550000e+01 1.500000e+00
    endloop
  endfacet
  facet normal 0.000000e+00 -1.000000e+00 0.000000e+00
    outer loop
      vertex   -2.000000e+01 2.850000e+01 1.500000e+00
      vertex   -2.000000e+01 2.850000e+01 0.000000e+00
      vertex   -1.700000e+01 2.850000e+01 1.500000e+00
    endloop
  endfacet
  facet normal 0.000000e+00 -8.944272e-01 -0.000000e+00
    outer loop
      vertex   -1.700000e+01 2.850000e+01 1.500000e+00
      vertex   -2.000000e+01 2.850000e+01 0.000000e+00
      vertex   -1.700000e+01 2.850000e+01 0.000000e+00
    endloop
  endfacet
  facet normal 1.000000e+00 0.000000e+00 0.000000e+00
    outer loop
      vertex   -1.700000e+01 2.850000e+01 0.000000e+00
      vertex   -1.700000e+01 3.000000e+01 0.000000e+00
      vertex   -1.700000e+01 2.850000e+01 1.500000e+00
    endloop
  endfacet
  facet normal 1.000000e+00 -0.000000e+00 0.000000e+00
    outer loop
      vertex   -1.700000e+01 2.850000e+01 1.500000e+00
      vertex   -1.700000e+01 3.000000e+01 0.000000e+00
      vertex   -1.700000e+01 3.000000e+01 3.000000e+00
    endloop
  endfacet
  facet normal 8.944272e-01 0.000000e+00 -0.000000e+00
    outer loop
      vertex   -1.700000e+01 2.850000e+01 1.500000e+00
      vertex   -1.700000e+01 3.000000e+01 3.000000e+00
      vertex   -1.700000e+01 2.400000e+01 3.000000e+00
    endloop
  endfacet
  facet normal 3.162278e-01 0.000000e+00 0.000000e+00
    outer loop
      vertex   -1.700000e+01 2.850000e+01 1.500000e+00
      vertex   -1.700000e+01 2.400000e+01 3.000000e+00
      vertex   -1.700000e+01 2.550000e+01 1.500000e+00
    endloop
  endfacet
  facet normal 1.000000e+00 0.000000e+00 0.000000e+00
    outer loop
      vertex   -1.700000e+01 2.550000e+01 1.500000e+00
      vertex   -1.700000e+01 2.400000e+01 3.000000e+00
      vertex   -1.700000e+01 2.400000e+01 0.000000e+00
    endloop
  endfacet
  facet normal 7.071068e-01 0.000000e+00 0.000000e+00
    outer loop
      vertex   -1.700000e+01 2.550000e+01 1.500000e+00
      vertex   -1.700000e+01 2.400000e+01 0.000000e+00
      vertex   -1.700000e+01 2.550000e+01 0.000000e+00
    endloop
  endfacet
  facet normal 1.121970e-07 1.000000e+00 0.000000e+00
    outer loop
      vertex   0.000000e+00 3.000000e+01 0.000000e+00
      vertex   0.000000e+00 3.000000e+01 -4.000000e+00
      vertex   -1.700000e+01 3.000000e+01 0.000000e+00
    endloop
  endfacet
  facet normal 0.000000e+00 9.161573e-01 -4.368578e-07
    outer loop
      vertex   -1.700000e+01 3.000000e+01 0.000000e+00
      vertex   0.000000e+00 3.000000e+01 -4.000000e+00
      vertex   -2.000000e+01 3.000000e+01 -4.000000e+00
    endloop
  endfacet
  facet normal -2.697398e-07 9.899495e-01 -2.697398e-07
    outer loop
      vertex   -1.700000e+01 3.000000e+01 0.000000e+00
      vertex   -2.000000e+01 3.000000e+01 -4.000000e+00
      vertex   -2.000000e+01 3.000000e+01 3.000000e+00
    endloop
  endfacet
  facet normal -0.000000e+00 7.071068e-01 0.000000e+00
    outer loop
      vertex   -2.000000e+01 3.000000e+01 3.000000e+00
      vertex   -1.700000e+01 3.000000e+01 3.000000e+00
      vertex   -1.700000e+01 3.000000e+01 0.000000e+00
    endloop
  endfacet
  facet normal 9.989008e-01 -4.687358e-02 0.000000e+00
    outer loop
      vertex   -1.248901e+01 2.273410e+01 -4.000000e+00
      vertex   -1.248901e+01 2.273410e+01 0.000000e+00
      vertex   -1.250000e+01 2.250000e+01 -4.000000e+00
    endloop
  endfacet
  facet normal 5.842584e-02 -2.741642e-03 0.000000e+00
    outer loop
      vertex   -1.250000e+01 2.250000e+01 -4.000000e+00
      vertex   -1.248901e+01 2.273410e+01 0.000000e+00
      vertex   -1.250000e+01 2.250000e+01 0.000000e+00
    endloop
  endfacet
  facet normal 9.989008e-01 4.687358e-02 -0.000000e+00
    outer loop
      vertex   -1.250000e+01 2.250000e+01 -4.000000e+00
      vertex   -1.250000e+01 2.250000e+01 0.000000e+00
      vertex   -1.248901e+01 2.226590e+01 -4.000000e+00
    endloop
  endfacet
  facet normal 5.842584e-02 2.741642e-03 -0.000000e+00
    outer loop
      vertex   -1.248901e+01 2.226590e+01 -4.000000e+00
      vertex   -1.250000e+01 2.250000e+01 0.000000e+00
      vertex   -1.248901e+01 2.226590e+01 0.000000e+00
    endloop
  endfacet
  facet normal 5.791222e-02 8.200411e-03 -0.000000e+00
    outer loop
      vertex   -1.248901e+01 2.226590e+01 -4.000000e+00
      vertex   -1.248901e+01 2.226590e+01 0.000000e+00
      vertex   -1.245616e+01 2.203385e+01 0.000000e+00
    endloop
  endfacet
  facet normal 9.901229e-01 -1.402021e-01 0.000000e+00
    outer loop
      vertex   -1.248901e+01 2.273410e+01 -4.000000e+00
      vertex   -1.245616e+01 2.296615e+01 -4.000000e+00
      vertex   -1.248901e+01 2.273410e+01 0.000000e+00
    endloop
  endfacet
  facet normal 9.884278e-01 -1.399621e-01 0.000000e+00
    outer loop
      vertex   -1.248901e+01 2.273410e+01 0.000000e+00
      vertex   -1.245616e+01 2.296615e+01 -4.000000e+00
      vertex   -1.245616e+01 2.296615e+01 0.000000e+00
    endloop
  endfacet
  facet normal 5.688972e-02 -1.358754e-02 0.000000e+00
    outer loop
      vertex   -1.245616e+01 2.296615e+01 0.000000e+00
      vertex   -1.245616e+01 2.296615e+01 -4.000000e+00
      vertex   -1.240171e+01 2.319410e+01 -4.000000e+00
    endloop
  endfacet
  facet normal 9.709776e-01 -2.319082e-01 -1.734723e-18
    outer loop
      vertex   -1.245616e+01 2.296615e+01 0.000000e+00
      vertex   -1.240171e+01 2.319410e+01 -4.000000e+00
      vertex   -1.240171e+01 2.319410e+01 0.000000e+00
    endloop
  endfacet
  facet normal 5.536788e-02 -1.885518e-02 0.000000e+00
    outer loop
      vertex   -1.240171e+01 2.319410e+01 0.000000e+00
      vertex   -1.240171e+01 2.319410e+01 -4.000000e+00
      vertex   -1.232616e+01 2.341595e+01 -4.000000e+00
    endloop
  endfacet
  facet normal 9.449952e-01 -3.218122e-01 0.000000e+00
    outer loop
      vertex   -1.240171e+01 2.319410e+01 0.000000e+00
      vertex   -1.232616e+01 2.341595e+01 -4.000000e+00
      vertex   -1.232616e+01 2.341595e+01 0.000000e+00
    endloop
  endfacet
  facet normal 5.335860e-02 -2.395694e-02 0.000000e+00
    outer loop
      vertex   -1.232616e+01 2.341595e+01 0.000000e+00
      vertex   -1.232616e+01 2.341595e+01 -4.000000e+00
      vertex   -1.223017e+01 2.362975e+01 -4.000000e+00
    endloop
  endfacet
  facet normal 9.107077e-01 -4.088894e-01 3.469447e-18
    outer loop
      vertex   -1.232616e+01 2.341595e+01 0.000000e+00
      vertex   -1.223017e+01 2.362975e+01 -4.000000e+00
      vertex   -1.223017e+01 2.362975e+01 0.000000e+00
    endloop
  endfacet
  facet normal 5.088091e-02 -2.884829e-02 0.000000e+00
    outer loop
      vertex   -1.223017e+01 2.362975e+01 0.000000e+00
      vertex   -1.223017e+01 2.362975e+01 -4.000000e+00
      vertex   -1.211458e+01 2.383362e+01 -4.000000e+00
    endloop
  endfacet
  facet normal 8.684172e-01 -4.923723e-01 0.000000e+00
    outer loop
      vertex   -1.223017e+01 2.362975e+01 0.000000e+00
      vertex   -1.211458e+01 2.383362e+01 -4.000000e+00
      vertex   -1.211458e+01 2.383362e+01 0.000000e+00
    endloop
  endfacet
  facet normal 4.795577e-02 -3.348616e-02 0.000000e+00
    outer loop
      vertex   -1.211458e+01 2.383362e+01 0.000000e+00
      vertex   -1.211458e+01 2.383362e+01 -4.000000e+00
      vertex   -1.198041e+01 2.402578e+01 -4.000000e+00
    endloop
  endfacet
  facet normal 8.184934e-01 -5.715309e-01 -3.469447e-18
    outer loop
      vertex   -1.211458e+01 2.383362e+01 0.000000e+00
      vertex   -1.198041e+01 2.402578e+01 -4.000000e+00
      vertex   -1.198041e+01 2.402578e+01 0.000000e+00
    endloop
  endfacet
  facet normal 4.460934e-02 -3.782937e-02 0.000000e+00
    outer loop
      vertex   -1.198041e+01 2.402578e+01 0.000000e+00
      vertex   -1.198041e+01 2.402578e+01 -4.000000e+00
      vertex   -1.182883e+01 2.420452e+01 -4.000000e+00
    endloop
  endfacet
  facet normal 7.613803e-01 -6.456617e-01 -3.469447e-18
    outer loop
      vertex   -1.198041e+01 2.402578e+01 0.000000e+00
      vertex   -1.182883e+01 2.420452e+01 -4.000000e+00
      vertex   -1.182883e+01 2.420452e+01 0.000000e+00
    endloop
  endfacet
  facet normal 4.087115e-02 -4.184080e-02 0.000000e+00
    outer loop
      vertex   -1.182883e+01 2.420452e+01 0.000000e+00
      vertex   -1.182883e+01 2.420452e+01 -4.000000e+00
      vertex   -1.166118e+01 2.436828e+01 -4.000000e+00
    endloop
  endfacet
  facet normal 6.975729e-01 -7.141225e-01 -6.938894e-18
    outer loop
      vertex   -1.182883e+01 2.420452e+01 0.000000e+00
      vertex   -1.166118e+01 2.436828e+01 -4.000000e+00
      vertex   -1.166118e+01 2.436828e+01 0.000000e+00
    endloop
  endfacet
  facet normal 3.677356e-02 -4.548403e-02 0.000000e+00
    outer loop
      vertex   -1.166118e+01 2.436828e+01 0.000000e+00
      vertex   -1.166118e+01 2.436828e+01 -4.000000e+00
      vertex   -1.147893e+01 2.451563e+01 -4.000000e+00
    endloop
  endfacet
  facet normal 6.276379e-01 -7.763051e-01 -3.469447e-18
    outer loop
      vertex   -1.166118e+01 2.436828e+01 0.000000e+00
      vertex   -1.147893e+01 2.451563e+01 -4.000000e+00
      vertex   -1.147893e+01 2.451563e+01 0.000000e+00
    endloop
  endfacet
  facet normal 3.235228e-02 -4.872763e-02 0.000000e+00
    outer loop
      vertex   -1.147893e+01 2.451563e+01 0.000000e+00
      vertex   -1.147893e+01 2.451563e+01 -4.000000e+00
      vertex   -1.128369e+01 2.464526e+01 -4.000000e+00
    endloop
  endfacet
  facet normal 5.521803e-01 -8.316705e-01 0.000000e+00
    outer loop
      vertex   -1.147893e+01 2.451563e+01 0.000000e+00
      vertex   -1.128369e+01 2.464526e+01 -4.000000e+00
      vertex   -1.128369e+01 2.464526e+01 0.000000e+00
    endloop
  endfacet
  facet normal 2.764776e-02 -5.154330e-02 0.000000e+00
    outer loop
      vertex   -1.128369e+01 2.464526e+01 0.000000e+00
      vertex   -1.128369e+01 2.464526e+01 -4.000000e+00
      vertex   -1.107716e+01 2.475604e+01 -4.000000e+00
    endloop
  endfacet
  facet normal 4.718808e-01 -8.797200e-01 0.000000e+00
    outer loop
      vertex   -1.128369e+01 2.464526e+01 0.000000e+00
      vertex   -1.107716e+01 2.475604e+01 -4.000000e+00
      vertex   -1.107716e+01 2.475604e+01 0.000000e+00
    endloop
  endfacet
  facet normal 2.269953e-02 -5.390555e-02 0.000000e+00
    outer loop
      vertex   -1.107716e+01 2.475604e+01 0.000000e+00
      vertex   -1.107716e+01 2.475604e+01 -4.000000e+00
      vertex   -1.086117e+01 2.484700e+01 -4.000000e+00
    endloop
  endfacet
  facet normal 3.874283e-01 -9.200425e-01 0.000000e+00
    outer loop
      vertex   -1.107716e+01 2.475604e+01 0.000000e+00
      vertex   -1.086117e+01 2.484700e+01 -4.000000e+00
      vertex   -1.086117e+01 2.484700e+01 0.000000e+00
    endloop
  endfacet
  facet normal 1.755184e-02 -5.579440e-02 0.000000e+00
    outer loop
      vertex   -1.086117e+01 2.484700e+01 0.000000e+00
      vertex   -1.086117e+01 2.484700e+01 -4.000000e+00
      vertex   -1.063761e+01 2.491732e+01 -4.000000e+00
    endloop
  endfacet
  facet normal 2.995689e-01 -9.522801e-01 0.000000e+00
    outer loop
      vertex   -1.086117e+01 2.484700e+01 0.000000e+00
      vertex   -1.063761e+01 2.491732e+01 -4.000000e+00
      vertex   -1.063761e+01 2.491732e+01 0.000000e+00
    endloop
  endfacet
  facet normal 1.225040e-02 -5.719271e-02 0.000000e+00
    outer loop
      vertex   -1.063761e+01 2.491732e+01 0.000000e+00
      vertex   -1.063761e+01 2.491732e+01 -4.000000e+00
      vertex   -1.040844e+01 2.496641e+01 -4.000000e+00
    endloop
  endfacet
  facet normal 2.090858e-01 -9.761465e-01 -1.734723e-18
    outer loop
      vertex   -1.063761e+01 2.491732e+01 0.000000e+00
      vertex   -1.040844e+01 2.496641e+01 -4.000000e+00
      vertex   -1.040844e+01 2.496641e+01 0.000000e+00
    endloop
  endfacet
  facet normal 6.840419e-03 -5.808858e-02 0.000000e+00
    outer loop
      vertex   -1.040844e+01 2.496641e+01 0.000000e+00
      vertex   -1.040844e+01 2.496641e+01 -4.000000e+00
      vertex   -1.017569e+01 2.499382e+01 -4.000000e+00
    endloop
  endfacet
  facet normal 1.167501e-01 -9.914375e-01 0.000000e+00
    outer loop
      vertex   -1.040844e+01 2.496641e+01 0.000000e+00
      vertex   -1.017569e+01 2.499382e+01 -4.000000e+00
      vertex   -1.017569e+01 2.499382e+01 0.000000e+00
    endloop
  endfacet
  facet normal 1.371416e-03 -5.847392e-02 0.000000e+00
    outer loop
      vertex   -1.017569e+01 2.499382e+01 0.000000e+00
      vertex   -1.017569e+01 2.499382e+01 -4.000000e+00
      vertex   -9.941394e+00 2.499931e+01 -4.000000e+00
    endloop
  endfacet
  facet normal 2.340687e-02 -9.980136e-01 0.000000e+00
    outer loop
      vertex   -1.017569e+01 2.499382e+01 0.000000e+00
      vertex   -9.941394e+00 2.499931e+01 -4.000000e+00
      vertex   -9.941394e+00 2.499931e+01 0.000000e+00
    endloop
  endfacet
  facet normal -4.110440e-03 -5.834540e-02 -0.000000e+00
    outer loop
      vertex   -9.941394e+00 2.499931e+01 0.000000e+00
      vertex   -9.941394e+00 2.499931e+01 -4.000000e+00
      vertex   -9.707612e+00 2.498284e+01 -4.000000e+00
    endloop
  endfacet
  facet normal -7.015562e-02 -9.958198e-01 8.673617e-19
    outer loop
      vertex   -9.941394e+00 2.499931e+01 0.000000e+00
      vertex   -9.707612e+00 2.498284e+01 -4.000000e+00
      vertex   -9.707612e+00 2.498284e+01 0.000000e+00
    endloop
  endfacet
  facet normal -9.556117e-03 -5.770420e-02 -0.000000e+00
    outer loop
      vertex   -9.707612e+00 2.498284e+01 0.000000e+00
      vertex   -9.707612e+00 2.498284e+01 -4.000000e+00
      vertex   -9.476399e+00 2.494455e+01 -4.000000e+00
    endloop
  endfacet
  facet normal -1.631003e-01 -9.848742e-01 0.000000e+00
    outer loop
      vertex   -9.707612e+00 2.498284e+01 0.000000e+00
      vertex   -9.476399e+00 2.494455e+01 -4.000000e+00
      vertex   -9.476399e+00 2.494455e+01 0.000000e+00
    endloop
  endfacet
  facet normal -1.491754e-02 -5.655579e-02 -0.000000e+00
    outer loop
      vertex   -9.476399e+00 2.494455e+01 0.000000e+00
      vertex   -9.476399e+00 2.494455e+01 -4.000000e+00
      vertex   -9.249788e+00 2.488478e+01 -4.000000e+00
    endloop
  endfacet
  facet normal -2.546072e-01 -9.652741e-01 1.734723e-18
    outer loop
      vertex   -9.476399e+00 2.494455e+01 0.000000e+00
      vertex   -9.249788e+00 2.488478e+01 -4.000000e+00
      vertex   -9.249788e+00 2.488478e+01 0.000000e+00
    endloop
  endfacet
  facet normal -2.014758e-02 -5.491043e-02 -0.000000e+00
    outer loop
      vertex   -9.249788e+00 2.488478e+01 0.000000e+00
      vertex   -9.249788e+00 2.488478e+01 -4.000000e+00
      vertex   -9.029770e+00 2.480405e+01 -4.000000e+00
    endloop
  endfacet
  facet normal -3.438722e-01 -9.371930e-01 -3.469447e-18
    outer loop
      vertex   -9.249788e+00 2.488478e+01 0.000000e+00
      vertex   -9.029770e+00 2.480405e+01 -4.000000e+00
      vertex   -9.029770e+00 2.480405e+01 0.000000e+00
    endloop
  endfacet
  facet normal -2.520149e-02 -5.278238e-02 -0.000000e+00
    outer loop
      vertex   -9.029770e+00 2.480405e+01 0.000000e+00
      vertex   -9.029770e+00 2.480405e+01 -4.000000e+00
      vertex   -8.818278e+00 2.470307e+01 -4.000000e+00
    endloop
  endfacet
  facet normal -4.301299e-01 -9.008703e-01 0.000000e+00
    outer loop
      vertex   -9.029770e+00 2.480405e+01 0.000000e+00
      vertex   -8.818278e+00 2.470307e+01 -4.000000e+00
      vertex   -8.818278e+00 2.470307e+01 0.000000e+00
    endloop
  endfacet
  facet normal -3.003311e-02 -5.019045e-02 -0.000000e+00
    outer loop
      vertex   -8.818278e+00 2.470307e+01 0.000000e+00
      vertex   -8.818278e+00 2.470307e+01 -4.000000e+00
      vertex   -8.617172e+00 2.458274e+01 -4.000000e+00
    endloop
  endfacet
  facet normal -5.125960e-01 -8.566355e-01 0.000000e+00
    outer loop
      vertex   -8.818278e+00 2.470307e+01 0.000000e+00
      vertex   -8.617172e+00 2.458274e+01 -4.000000e+00
      vertex   -8.617172e+00 2.458274e+01 0.000000e+00
    endloop
  endfacet
  facet normal -3.460100e-02 -4.715772e-02 -0.000000e+00
    outer loop
      vertex   -8.617172e+00 2.458274e+01 0.000000e+00
      vertex   -8.617172e+00 2.458274e+01 -4.000000e+00
      vertex   -8.428218e+00 2.444409e+01 -4.000000e+00
    endloop
  endfacet
  facet normal -5.905585e-01 -8.048724e-01 -3.469447e-18
    outer loop
      vertex   -8.617172e+00 2.458274e+01 0.000000e+00
      vertex   -8.428218e+00 2.444409e+01 -4.000000e+00
      vertex   -8.428218e+00 2.444409e+01 0.000000e+00
    endloop
  endfacet
  facet normal -3.886472e-02 -4.371037e-02 -0.000000e+00
    outer loop
      vertex   -8.428218e+00 2.444409e+01 0.000000e+00
      vertex   -8.428218e+00 2.444409e+01 -4.000000e+00
      vertex   -8.253077e+00 2.428837e+01 -4.000000e+00
    endloop
  endfacet
  facet normal -6.633319e-01 -7.460361e-01 -3.469447e-18
    outer loop
      vertex   -8.428218e+00 2.444409e+01 0.000000e+00
      vertex   -8.253077e+00 2.428837e+01 -4.000000e+00
      vertex   -8.253077e+00 2.428837e+01 0.000000e+00
    endloop
  endfacet
  facet normal -4.278761e-02 -3.987888e-02 -0.000000e+00
    outer loop
      vertex   -8.253077e+00 2.428837e+01 0.000000e+00
      vertex   -8.253077e+00 2.428837e+01 -4.000000e+00
      vertex   -8.093287e+00 2.411692e+01 -4.000000e+00
    endloop
  endfacet
  facet normal -7.302821e-01 -6.806371e-01 -3.469447e-18
    outer loop
      vertex   -8.253077e+00 2.428837e+01 0.000000e+00
      vertex   -8.093287e+00 2.411692e+01 -4.000000e+00
      vertex   -8.093287e+00 2.411692e+01 0.000000e+00
    endloop
  endfacet
  facet normal -4.633348e-02 -3.569716e-02 -0.000000e+00
    outer loop
      vertex   -8.093287e+00 2.411692e+01 0.000000e+00
      vertex   -8.093287e+00 2.411692e+01 -4.000000e+00
      vertex   -7.950254e+00 2.393127e+01 -4.000000e+00
    endloop
  endfacet
  facet normal -7.908047e-01 -6.092674e-01 3.469447e-18
    outer loop
      vertex   -8.093287e+00 2.411692e+01 0.000000e+00
      vertex   -7.950254e+00 2.393127e+01 -4.000000e+00
      vertex   -7.950254e+00 2.393127e+01 0.000000e+00
    endloop
  endfacet
  facet normal -4.947284e-02 -3.120150e-02 -0.000000e+00
    outer loop
      vertex   -7.950254e+00 2.393127e+01 0.000000e+00
      vertex   -7.950254e+00 2.393127e+01 -4.000000e+00
      vertex   -7.825234e+00 2.373304e+01 -4.000000e+00
    endloop
  endfacet
  facet normal -8.443842e-01 -5.325357e-01 -3.469447e-18
    outer loop
      vertex   -7.950254e+00 2.393127e+01 0.000000e+00
      vertex   -7.825234e+00 2.373304e+01 -4.000000e+00
      vertex   -7.825234e+00 2.373304e+01 0.000000e+00
    endloop
  endfacet
  facet normal -5.217712e-02 -2.643165e-02 -0.000000e+00
    outer loop
      vertex   -7.825234e+00 2.373304e+01 0.000000e+00
      vertex   -7.825234e+00 2.373304e+01 -4.000000e+00
      vertex   -7.719326e+00 2.352398e+01 -4.000000e+00
    endloop
  endfacet
  facet normal -8.905413e-01 -4.511264e-01 0.000000e+00
    outer loop
      vertex   -7.825234e+00 2.373304e+01 0.000000e+00
      vertex   -7.719326e+00 2.352398e+01 -4.000000e+00
      vertex   -7.719326e+00 2.352398e+01 0.000000e+00
    endloop
  endfacet
  facet normal -5.442298e-02 -2.142951e-02 -0.000000e+00
    outer loop
      vertex   -7.719326e+00 2.352398e+01 0.000000e+00
      vertex   -7.719326e+00 2.352398e+01 -4.000000e+00
      vertex   -7.633461e+00 2.330591e+01 -4.000000e+00
    endloop
  endfacet
  facet normal -9.288729e-01 -3.657514e-01 0.000000e+00
    outer loop
      vertex   -7.719326e+00 2.352398e+01 0.000000e+00
      vertex   -7.633461e+00 2.330591e+01 -4.000000e+00
      vertex   -7.633461e+00 2.330591e+01 0.000000e+00
    endloop
  endfacet
  facet normal -5.619045e-02 -1.623921e-02 -0.000000e+00
    outer loop
      vertex   -7.633461e+00 2.330591e+01 0.000000e+00
      vertex   -7.633461e+00 2.330591e+01 -4.000000e+00
      vertex   -7.568393e+00 2.308076e+01 -4.000000e+00
    endloop
  endfacet
  facet normal -9.590402e-01 -2.771656e-01 -1.734723e-18
    outer loop
      vertex   -7.633461e+00 2.330591e+01 0.000000e+00
      vertex   -7.568393e+00 2.308076e+01 -4.000000e+00
      vertex   -7.568393e+00 2.308076e+01 0.000000e+00
    endloop
  endfacet
  facet normal -5.746428e-02 -1.090611e-02 -0.000000e+00
    outer loop
      vertex   -7.568393e+00 2.308076e+01 0.000000e+00
      vertex   -7.568393e+00 2.308076e+01 -4.000000e+00
      vertex   -7.524693e+00 2.285051e+01 -4.000000e+00
    endloop
  endfacet
  facet normal -9.807804e-01 -1.861417e-01 -1.734723e-18
    outer loop
      vertex   -7.568393e+00 2.308076e+01 0.000000e+00
      vertex   -7.524693e+00 2.285051e+01 -4.000000e+00
      vertex   -7.524693e+00 2.285051e+01 0.000000e+00
    endloop
  endfacet
  facet normal -5.823305e-02 -5.477095e-03 -0.000000e+00
    outer loop
      vertex   -7.524693e+00 2.285051e+01 0.000000e+00
      vertex   -7.524693e+00 2.285051e+01 -4.000000e+00
      vertex   -7.502748e+00 2.261718e+01 -4.000000e+00
    endloop
  endfacet
  facet normal -9.939015e-01 -9.348116e-02 8.673617e-19
    outer loop
      vertex   -7.524693e+00 2.285051e+01 0.000000e+00
      vertex   -7.502748e+00 2.261718e+01 -4.000000e+00
      vertex   -7.502748e+00 2.261718e+01 0.000000e+00
    endloop
  endfacet
  facet normal -5.848963e-02 0.000000e+00 -0.000000e+00
    outer loop
      vertex   -7.502748e+00 2.261718e+01 0.000000e+00
      vertex   -7.502748e+00 2.261718e+01 -4.000000e+00
      vertex   -7.502748e+00 2.238282e+01 -4.000000e+00
    endloop
  endfacet
  facet normal -9.982880e-01 -0.000000e+00 0.000000e+00
    outer loop
      vertex   -7.502748e+00 2.261718e+01 0.000000e+00
      vertex   -7.502748e+00 2.238282e+01 -4.000000e+00
      vertex   -7.502748e+00 2.238282e+01 0.000000e+00
    endloop
  endfacet
  facet normal -5.823305e-02 5.477095e-03 0.000000e+00
    outer loop
      vertex   -7.502748e+00 2.238282e+01 0.000000e+00
      vertex   -7.502748e+00 2.238282e+01 -4.000000e+00
      vertex   -7.524693e+00 2.214949e+01 -4.000000e+00
    endloop
  endfacet
  facet normal -9.939015e-01 9.348116e-02 -8.673617e-19
    outer loop
      vertex   -7.502748e+00 2.238282e+01 0.000000e+00
      vertex   -7.524693e+00 2.214949e+01 -4.000000e+00
      vertex   -7.524693e+00 2.214949e+01 0.000000e+00
    endloop
  endfacet
  facet normal -5.746428e-02 1.090611e-02 0.000000e+00
    outer loop
      vertex   -7.524693e+00 2.214949e+01 0.000000e+00
      vertex   -7.524693e+00 2.214949e+01 -4.000000e+00
      vertex   -7.568393e+00 2.191924e+01 -4.000000e+00
    endloop
  endfacet
  facet normal -9.807804e-01 1.861417e-01 1.734723e-18
    outer loop
      vertex   -7.524693e+00 2.214949e+01 0.000000e+00
      vertex   -7.568393e+00 2.191924e+01 -4.000000e+00
      vertex   -7.568393e+00 2.191924e+01 0.000000e+00
    endloop
  endfacet
  facet normal -5.619045e-02 1.623921e-02 0.000000e+00
    outer loop
      vertex   -7.568393e+00 2.191924e+01 0.000000e+00
      vertex   -7.568393e+00 2.191924e+01 -4.000000e+00
      vertex   -7.633461e+00 2.169409e+01 -4.000000e+00
    endloop
  endfacet
  facet normal -9.590402e-01 2.771656e-01 1.734723e-18
    outer loop
      vertex   -7.568393e+00 2.191924e+01 0.000000e+00
      vertex   -7.633461e+00 2.169409e+01 -4.000000e+00
      vertex   -7.633461e+00 2.169409e+01 0.000000e+00
    endloop
  endfacet
  facet normal -5.442298e-02 2.142951e-02 0.000000e+00
    outer loop
      vertex   -7.633461e+00 2.169409e+01 0.000000e+00
      vertex   -7.633461e+00 2.169409e+01 -4.000000e+00
      vertex   -7.719326e+00 2.147602e+01 -4.000000e+00
    endloop
  endfacet
  facet normal -9.288729e-01 3.657514e-01 0.000000e+00
    outer loop
      vertex   -7.633461e+00 2.169409e+01 0.000000e+00
      vertex   -7.719326e+00 2.147602e+01 -4.000000e+00
      vertex   -7.719326e+00 2.147602e+01 0.000000e+00
    endloop
  endfacet
  facet normal -5.217712e-02 2.643165e-02 0.000000e+00
    outer loop
      vertex   -7.719326e+00 2.147602e+01 0.000000e+00
      vertex   -7.719326e+00 2.147602e+01 -4.000000e+00
      vertex   -7.825234e+00 2.126696e+01 -4.000000e+00
    endloop
  endfacet
  facet normal -8.905413e-01 4.511264e-01 0.000000e+00
    outer loop
      vertex   -7.719326e+00 2.147602e+01 0.000000e+00
      vertex   -7.825234e+00 2.126696e+01 -4.000000e+00
      vertex   -7.825234e+00 2.126696e+01 0.000000e+00
    endloop
  endfacet
  facet normal -4.947284e-02 3.120150e-02 0.000000e+00
    outer loop
      vertex   -7.825234e+00 2.126696e+01 0.000000e+00
      vertex   -7.825234e+00 2.126696e+01 -4.000000e+00
      vertex   -7.950254e+00 2.106873e+01 -4.000000e+00
    endloop
  endfacet
  facet normal -8.443842e-01 5.325357e-01 3.469447e-18
    outer loop
      vertex   -7.825234e+00 2.126696e+01 0.000000e+00
      vertex   -7.950254e+00 2.106873e+01 -4.000000e+00
      vertex   -7.950254e+00 2.106873e+01 0.000000e+00
    endloop
  endfacet
  facet normal -4.633348e-02 3.569716e-02 0.000000e+00
    outer loop
      vertex   -7.950254e+00 2.106873e+01 0.000000e+00
      vertex   -7.950254e+00 2.106873e+01 -4.000000e+00
      vertex   -8.093287e+00 2.088308e+01 -4.000000e+00
    endloop
  endfacet
  facet normal -7.908047e-01 6.092674e-01 -3.469447e-18
    outer loop
      vertex   -7.950254e+00 2.106873e+01 0.000000e+00
      vertex   -8.093287e+00 2.088308e+01 -4.000000e+00
      vertex   -8.093287e+00 2.088308e+01 0.000000e+00
    endloop
  endfacet
  facet normal -4.278761e-02 3.987888e-02 0.000000e+00
    outer loop
      vertex   -8.093287e+00 2.088308e+01 0.000000e+00
      vertex   -8.093287e+00 2.088308e+01 -4.000000e+00
      vertex   -8.253077e+00 2.071163e+01 -4.000000e+00
    endloop
  endfacet
  facet normal -7.302821e-01 6.806371e-01 3.469447e-18
    outer loop
      vertex   -8.093287e+00 2.088308e+01 0.000000e+00
      vertex   -8.253077e+00 2.071163e+01 -4.000000e+00
      vertex   -8.253077e+00 2.071163e+01 0.000000e+00
    endloop
  endfacet
  facet normal -3.886472e-02 4.371037e-02 0.000000e+00
    outer loop
      vertex   -8.253077e+00 2.071163e+01 0.000000e+00
      vertex   -8.253077e+00 2.071163e+01 -4.000000e+00
      vertex   -8.428218e+00 2.055591e+01 -4.000000e+00
    endloop
  endfacet
  facet normal -6.633319e-01 7.460361e-01 3.469447e-18
    outer loop
      vertex   -8.253077e+00 2.071163e+01 0.000000e+00
      vertex   -8.428218e+00 2.055591e+01 -4.000000e+00
      vertex   -8.428218e+00 2.055591e+01 0.000000e+00
    endloop
  endfacet
  facet normal -3.460100e-02 4.715772e-02 0.000000e+00
    outer loop
      vertex   -8.428218e+00 2.055591e+01 0.000000e+00
      vertex   -8.428218e+00 2.055591e+01 -4.000000e+00
      vertex   -8.617172e+00 2.041726e+01 -4.000000e+00
    endloop
  endfacet
  facet normal -5.905585e-01 8.048724e-01 3.469447e-18
    outer loop
      vertex   -8.428218e+00 2.055591e+01 0.000000e+00
      vertex   -8.617172e+00 2.041726e+01 -4.000000e+00
      vertex   -8.617172e+00 2.041726e+01 0.000000e+00
    endloop
  endfacet
  facet normal -3.003311e-02 5.019045e-02 0.000000e+00
    outer loop
      vertex   -8.617172e+00 2.041726e+01 0.000000e+00
      vertex   -8.617172e+00 2.041726e+01 -4.000000e+00
      vertex   -8.818278e+00 2.029693e+01 -4.000000e+00
    endloop
  endfacet
  facet normal -5.125960e-01 8.566355e-01 0.000000e+00
    outer loop
      vertex   -8.617172e+00 2.041726e+01 0.000000e+00
      vertex   -8.818278e+00 2.029693e+01 -4.000000e+00
      vertex   -8.818278e+00 2.029693e+01 0.000000e+00
    endloop
  endfacet
  facet normal -2.520149e-02 5.278238e-02 0.000000e+00
    outer loop
      vertex   -8.818278e+00 2.029693e+01 0.000000e+00
      vertex   -8.818278e+00 2.029693e+01 -4.000000e+00
      vertex   -9.029770e+00 2.019595e+01 -4.000000e+00
    endloop
  endfacet
  facet normal -4.301299e-01 9.008703e-01 0.000000e+00
    outer loop
      vertex   -8.818278e+00 2.029693e+01 0.000000e+00
      vertex   -9.029770e+00 2.019595e+01 -4.000000e+00
      vertex   -9.029770e+00 2.019595e+01 0.000000e+00
    endloop
  endfacet
  facet normal -2.014758e-02 5.491043e-02 0.000000e+00
    outer loop
      vertex   -9.029770e+00 2.019595e+01 0.000000e+00
      vertex   -9.029770e+00 2.019595e+01 -4.000000e+00
      vertex   -9.249788e+00 2.011522e+01 -4.000000e+00
    endloop
  endfacet
  facet normal -3.438722e-01 9.371930e-01 3.469447e-18
    outer loop
      vertex   -9.029770e+00 2.019595e+01 0.000000e+00
      vertex   -9.249788e+00 2.011522e+01 -4.000000e+00
      vertex   -9.249788e+00 2.011522e+01 0.000000e+00
    endloop
  endfacet
  facet normal -1.491754e-02 5.655579e-02 0.000000e+00
    outer loop
      vertex   -9.249788e+00 2.011522e+01 0.000000e+00
      vertex   -9.249788e+00 2.011522e+01 -4.000000e+00
      vertex   -9.476399e+00 2.005545e+01 -4.000000e+00
    endloop
  endfacet
  facet normal -2.546072e-01 9.652741e-01 -1.734723e-18
    outer loop
      vertex   -9.249788e+00 2.011522e+01 0.000000e+00
      vertex   -9.476399e+00 2.005545e+01 -4.000000e+00
      vertex   -9.476399e+00 2.005545e+01 0.000000e+00
    endloop
  endfacet
  facet normal -9.556117e-03 5.770420e-02 0.000000e+00
    outer loop
      vertex   -9.476399e+00 2.005545e+01 0.000000e+00
      vertex   -9.476399e+00 2.005545e+01 -4.000000e+00
      vertex   -9.707612e+00 2.001716e+01 -4.000000e+00
    endloop
  endfacet
  facet normal -1.631003e-01 9.848742e-01 0.000000e+00
    outer loop
      vertex   -9.476399e+00 2.005545e+01 0.000000e+00
      vertex   -9.707612e+00 2.001716e+01 -4.000000e+00
      vertex   -9.707612e+00 2.001716e+01 0.000000e+00
    endloop
  endfacet
  facet normal -4.110440e-03 5.834540e-02 0.000000e+00
    outer loop
      vertex   -9.707612e+00 2.001716e+01 0.000000e+00
      vertex   -9.707612e+00 2.001716e+01 -4.000000e+00
      vertex   -9.941394e+00 2.000069e+01 -4.000000e+00
    endloop
  endfacet
  facet normal -7.015562e-02 9.958198e-01 -8.673617e-19
    outer loop
      vertex   -9.707612e+00 2.001716e+01 0.000000e+00
      vertex   -9.941394e+00 2.000069e+01 -4.000000e+00
      vertex   -9.941394e+00 2.000069e+01 0.000000e+00
    endloop
  endfacet
  facet normal 1.371416e-03 5.847392e-02 0.000000e+00
    outer loop
      vertex   -9.941394e+00 2.000069e+01 0.000000e+00
      vertex   -9.941394e+00 2.000069e+01 -4.000000e+00
      vertex   -1.017569e+01 2.000618e+01 -4.000000e+00
    endloop
  endfacet
  facet normal 2.340687e-02 9.980136e-01 0.000000e+00
    outer loop
      vertex   -9.941394e+00 2.000069e+01 0.000000e+00
      vertex   -1.017569e+01 2.000618e+01 -4.000000e+00
      vertex   -1.017569e+01 2.000618e+01 0.000000e+00
    endloop
  endfacet
  facet normal 6.840419e-03 5.808858e-02 0.000000e+00
    outer loop
      vertex   -1.017569e+01 2.000618e+01 0.000000e+00
      vertex   -1.017569e+01 2.000618e+01 -4.000000e+00
      vertex   -1.040844e+01 2.003359e+01 -4.000000e+00
    endloop
  endfacet
  facet normal 1.167501e-01 9.914375e-01 0.000000e+00
    outer loop
      vertex   -1.017569e+01 2.000618e+01 0.000000e+00
      vertex   -1.040844e+01 2.003359e+01 -4.000000e+00
      vertex   -1.040844e+01 2.003359e+01 0.000000e+00
    endloop
  endfacet
  facet normal 1.225040e-02 5.719271e-02 0.000000e+00
    outer loop
      vertex   -1.040844e+01 2.003359e+01 0.000000e+00
      vertex   -1.040844e+01 2.003359e+01 -4.000000e+00
      vertex   -1.063761e+01 2.008268e+01 -4.000000e+00
    endloop
  endfacet
  facet normal 2.090858e-01 9.761465e-01 1.734723e-18
    outer loop
      vertex   -1.040844e+01 2.003359e+01 0.000000e+00
      vertex   -1.063761e+01 2.008268e+01 -4.000000e+00
      vertex   -1.063761e+01 2.008268e+01 0.000000e+00
    endloop
  endfacet
  facet normal 1.755184e-02 5.579440e-02 0.000000e+00
    outer loop
      vertex   -1.063761e+01 2.008268e+01 0.000000e+00
      vertex   -1.063761e+01 2.008268e+01 -4.000000e+00
      vertex   -1.086117e+01 2.015300e+01 -4.000000e+00
    endloop
  endfacet
  facet normal 2.995689e-01 9.522801e-01 0.000000e+00
    outer loop
      vertex   -1.063761e+01 2.008268e+01 0.000000e+00
      vertex   -1.086117e+01 2.015300e+01 -4.000000e+00
      vertex   -1.086117e+01 2.015300e+01 0.000000e+00
    endloop
  endfacet
  facet normal 2.269953e-02 5.390555e-02 0.000000e+00
    outer loop
      vertex   -1.086117e+01 2.015300e+01 0.000000e+00
      vertex   -1.086117e+01 2.015300e+01 -4.000000e+00
      vertex   -1.107716e+01 2.024396e+01 -4.000000e+00
    endloop
  endfacet
  facet normal 3.874283e-01 9.200425e-01 0.000000e+00
    outer loop
      vertex   -1.086117e+01 2.015300e+01 0.000000e+00
      vertex   -1.107716e+01 2.024396e+01 -4.000000e+00
      vertex   -1.107716e+01 2.024396e+01 0.000000e+00
    endloop
  endfacet
  facet normal 2.764776e-02 5.154330e-02 0.000000e+00
    outer loop
      vertex   -1.107716e+01 2.024396e+01 0.000000e+00
      vertex   -1.107716e+01 2.024396e+01 -4.000000e+00
      vertex   -1.128369e+01 2.035474e+01 -4.000000e+00
    endloop
  endfacet
  facet normal 4.718808e-01 8.797200e-01 0.000000e+00
    outer loop
      vertex   -1.107716e+01 2.024396e+01 0.000000e+00
      vertex   -1.128369e+01 2.035474e+01 -4.000000e+00
      vertex   -1.128369e+01 2.035474e+01 0.000000e+00
    endloop
  endfacet
  facet normal 3.235228e-02 4.872763e-02 0.000000e+00
    outer loop
      vertex   -1.128369e+01 2.035474e+01 0.000000e+00
      vertex   -1.128369e+01 2.035474e+01 -4.000000e+00
      vertex   -1.147893e+01 2.048437e+01 -4.000000e+00
    endloop
  endfacet
  facet normal 5.521803e-01 8.316705e-01 0.000000e+00
    outer loop
      vertex   -1.128369e+01 2.035474e+01 0.000000e+00
      vertex   -1.147893e+01 2.048437e+01 -4.000000e+00
      vertex   -1.147893e+01 2.048437e+01 0.000000e+00
    endloop
  endfacet
  facet normal 3.677356e-02 4.548403e-02 0.000000e+00
    outer loop
      vertex   -1.147893e+01 2.048437e+01 0.000000e+00
      vertex   -1.147893e+01 2.048437e+01 -4.000000e+00
      vertex   -1.166118e+01 2.063172e+01 -4.000000e+00
    endloop
  endfacet
  facet normal 6.276379e-01 7.763051e-01 3.469447e-18
    outer loop
      vertex   -1.147893e+01 2.048437e+01 0.000000e+00
      vertex   -1.166118e+01 2.063172e+01 -4.000000e+00
      vertex   -1.166118e+01 2.063172e+01 0.000000e+00
    endloop
  endfacet
  facet normal 4.087115e-02 4.184080e-02 0.000000e+00
    outer loop
      vertex   -1.166118e+01 2.063172e+01 0.000000e+00
      vertex   -1.166118e+01 2.063172e+01 -4.000000e+00
      vertex   -1.182883e+01 2.079548e+01 -4.000000e+00
    endloop
  endfacet
  facet normal 6.975729e-01 7.141225e-01 6.938894e-18
    outer loop
      vertex   -1.166118e+01 2.063172e+01 0.000000e+00
      vertex   -1.182883e+01 2.079548e+01 -4.000000e+00
      vertex   -1.182883e+01 2.079548e+01 0.000000e+00
    endloop
  endfacet
  facet normal 4.460934e-02 3.782937e-02 0.000000e+00
    outer loop
      vertex   -1.182883e+01 2.079548e+01 0.000000e+00
      vertex   -1.182883e+01 2.079548e+01 -4.000000e+00
      vertex   -1.198041e+01 2.097422e+01 -4.000000e+00
    endloop
  endfacet
  facet normal 7.613803e-01 6.456617e-01 3.469447e-18
    outer loop
      vertex   -1.182883e+01 2.079548e+01 0.000000e+00
      vertex   -1.198041e+01 2.097422e+01 -4.000000e+00
      vertex   -1.198041e+01 2.097422e+01 0.000000e+00
    endloop
  endfacet
  facet normal 4.795577e-02 3.348616e-02 0.000000e+00
    outer loop
      vertex   -1.198041e+01 2.097422e+01 0.000000e+00
      vertex   -1.198041e+01 2.097422e+01 -4.000000e+00
      vertex   -1.211458e+01 2.116638e+01 -4.000000e+00
    endloop
  endfacet
  facet normal 8.184934e-01 5.715309e-01 3.469447e-18
    outer loop
      vertex   -1.198041e+01 2.097422e+01 0.000000e+00
      vertex   -1.211458e+01 2.116638e+01 -4.000000e+00
      vertex   -1.211458e+01 2.116638e+01 0.000000e+00
    endloop
  endfacet
  facet normal 5.088091e-02 2.884829e-02 0.000000e+00
    outer loop
      vertex   -1.211458e+01 2.116638e+01 0.000000e+00
      vertex   -1.211458e+01 2.116638e+01 -4.000000e+00
      vertex   -1.223017e+01 2.137025e+01 -4.000000e+00
    endloop
  endfacet
  facet normal 8.684172e-01 4.923723e-01 0.000000e+00
    outer loop
      vertex   -1.211458e+01 2.116638e+01 0.000000e+00
      vertex   -1.223017e+01 2.137025e+01 -4.000000e+00
      vertex   -1.223017e+01 2.137025e+01 0.000000e+00
    endloop
  endfacet
  facet normal 5.335860e-02 2.395694e-02 0.000000e+00
    outer loop
      vertex   -1.223017e+01 2.137025e+01 0.000000e+00
      vertex   -1.223017e+01 2.137025e+01 -4.000000e+00
      vertex   -1.232616e+01 2.158405e+01 -4.000000e+00
    endloop
  endfacet
  facet normal 9.107077e-01 4.088894e-01 -3.469447e-18
    outer loop
      vertex   -1.223017e+01 2.137025e+01 0.000000e+00
      vertex   -1.232616e+01 2.158405e+01 -4.000000e+00
      vertex   -1.232616e+01 2.158405e+01 0.000000e+00
    endloop
  endfacet
  facet normal 5.536788e-02 1.885518e-02 0.000000e+00
    outer loop
      vertex   -1.232616e+01 2.158405e+01 0.000000e+00
      vertex   -1.232616e+01 2.158405e+01 -4.000000e+00
      vertex   -1.240171e+01 2.180590e+01 -4.000000e+00
    endloop
  endfacet
  facet normal 9.449952e-01 3.218122e-01 0.000000e+00
    outer loop
      vertex   -1.232616e+01 2.158405e+01 0.000000e+00
      vertex   -1.240171e+01 2.180590e+01 -4.000000e+00
      vertex   -1.240171e+01 2.180590e+01 0.000000e+00
    endloop
  endfacet
  facet normal 5.688972e-02 1.358754e-02 0.000000e+00
    outer loop
      vertex   -1.240171e+01 2.180590e+01 0.000000e+00
      vertex   -1.240171e+01 2.180590e+01 -4.000000e+00
      vertex   -1.245616e+01 2.203385e+01 -4.000000e+00
    endloop
  endfacet
  facet normal 9.709776e-01 2.319082e-01 1.734723e-18
    outer loop
      vertex   -1.240171e+01 2.180590e+01 0.000000e+00
      vertex   -1.245616e+01 2.203385e+01 -4.000000e+00
      vertex   -1.245616e+01 2.203385e+01 0.000000e+00
    endloop
  endfacet
  facet normal 5.791222e-02 8.200411e-03 0.000000e+00
    outer loop
      vertex   -1.245616e+01 2.203385e+01 0.000000e+00
      vertex   -1.245616e+01 2.203385e+01 -4.000000e+00
      vertex   -1.248901e+01 2.226590e+01 -4.000000e+00
    endloop
  endfacet
  facet normal 2.425356e-01 0.000000e+00 0.000000e+00
    outer loop
      vertex   0.000000e+00 5.000000e+00 -4.000000e+00
      vertex   0.000000e+00 5.500000e+00 -2.000000e+00
      vertex   0.000000e+00 5.000000e+00 -1.000000e+00
    endloop
  endfacet
  facet normal 7.371541e-01 0.000000e+00 0.000000e+00
    outer loop
      vertex   0.000000e+00 5.000000e+00 -1.000000e+00
      vertex   0.000000e+00 5.500000e+00 -2.000000e+00
      vertex   0.000000e+00 8.500000e+00 -2.000000e+00
    endloop
  endfacet
  facet normal 2.747211e-01 -0.000000e+00 0.000000e+00
    outer loop
      vertex   0.000000e+00 5.000000e+00 -1.000000e+00
      vertex   0.000000e+00 8.500000e+00 -2.000000e+00
      vertex   0.000000e+00 1.000000e+01 -1.000000e+00
    endloop
  endfacet
  facet normal 6.719899e-01 0.000000e+00 0.000000e+00
    outer loop
      vertex   0.000000e+00 1.000000e+01 -1.000000e+00
      vertex   0.000000e+00 8.500000e+00 -2.000000e+00
      vertex   0.000000e+00 3.000000e+01 -4.000000e+00
    endloop
  endfacet
  facet normal 1.975405e-01 -0.000000e+00 0.000000e+00
    outer loop
      vertex   0.000000e+00 1.000000e+01 -1.000000e+00
      vertex   0.000000e+00 3.000000e+01 -4.000000e+00
      vertex   0.000000e+00 3.000000e+01 0.000000e+00
    endloop
  endfacet
  facet normal 9.701425e-01 0.000000e+00 0.000000e+00
    outer loop
      vertex   0.000000e+00 5.000000e+00 -4.000000e+00
      vertex   0.000000e+00 5.500000e+00 -4.000000e+00
      vertex   0.000000e+00 5.500000e+00 -2.000000e+00
    endloop
  endfacet
  facet normal 9.957012e-01 0.000000e+00 0.000000e+00
    outer loop
      vertex   0.000000e+00 8.500000e+00 -2.000000e+00
      vertex   0.000000e+00 8.500000e+00 -4.000000e+00
      vertex   0.000000e+00 3.000000e+01 -4.000000e+00
    endloop
  endfacet
  facet normal 4.993762e-02 0.000000e+00 0.000000e+00
    outer loop
      vertex   0.000000e+00 3.000000e+01 0.000000e+00
      vertex   0.000000e+00 1.000000e+01 0.000000e+00
      vertex   0.000000e+00 1.000000e+01 -1.000000e+00
    endloop
  endfacet
  facet normal 0.000000e+00 0.000000e+00 1.000000e+00
    outer loop
      vertex   0.000000e+00 1.000000e+01 -1.000000e+00
      vertex   -2.000000e+01 1.000000e+01 -1.000000e+00
      vertex   0.000000e+00 5.000000e+00 -1.000000e+00
    endloop
  endfacet
  facet normal 0.000000e+00 0.000000e+00 2.425356e-01
    outer loop
      vertex   0.000000e+00 5.000000e+00 -1.000000e+00
      vertex   -2.000000e+01 1.000000e+01 -1.000000e+00
      vertex   -2.000000e+01 5.000000e+00 -1.000000e+00
    endloop
  endfacet
  facet normal 0.000000e+00 0.000000e+00 1.000000e+00
    outer loop
      vertex   0.000000e+00 5.000000e+00 -1.000000e+00
      vertex   -2.000000e+01 5.000000e+00 -1.000000e+00
      vertex   0.000000e+00 2.000000e+00 -1.000000e+00
    endloop
  endfacet
  facet normal 0.000000e+00 0.000000e+00 1.483404e-01
    outer loop
      vertex   0.000000e+00 2.000000e+00 -1.000000e+00
      vertex   -2.000000e+01 5.000000e+00 -1.000000e+00
      vertex   -2.000000e+01 2.000000e+00 -1.000000e+00
    endloop
  endfacet
  facet normal -1.000000e+00 0.000000e+00 0.000000e+00
    outer loop
      vertex   -2.000000e+01 5.500000e+00 -4.000000e+00
      vertex   -2.000000e+01 5.000000e+00 -4.000000e+00
      vertex   -2.000000e+01 5.500000e+00 -2.000000e+00
    endloop
  endfacet
  facet normal -6.507913e-01 -0.000000e+00 0.000000e+00
    outer loop
      vertex   -2.000000e+01 5.500000e+00 -2.000000e+00
      vertex   -2.000000e+01 5.000000e+00 -4.000000e+00
      vertex   -2.000000e+01 5.000000e+00 -1.000000e+00
    endloop
  endfacet
  facet normal -8.944272e-01 0.000000e+00 0.000000e+00
    outer loop
      vertex   -2.000000e+01 5.500000e+00 -2.000000e+00
      vertex   -2.000000e+01 5.000000e+00 -1.000000e+00
      vertex   -2.000000e+01 8.500000e+00 -2.000000e+00
    endloop
  endfacet
  facet normal -7.619393e-01 0.000000e+00 0.000000e+00
    outer loop
      vertex   -2.000000e+01 8.500000e+00 -2.000000e+00
      vertex   -2.000000e+01 5.000000e+00 -1.000000e+00
      vertex   -2.000000e+01 1.000000e+01 -1.000000e+00
    endloop
  endfacet
  facet normal -4.436608e-01 0.000000e+00 0.000000e+00
    outer loop
      vertex   -2.000000e+01 8.500000e+00 -2.000000e+00
      vertex   -2.000000e+01 1.000000e+01 -1.000000e+00
      vertex   -2.000000e+01 2.400000e+01 0.000000e+00
    endloop
  endfacet
  facet normal -7.124704e-02 -0.000000e+00 0.000000e+00
    outer loop
      vertex   -2.000000e+01 2.400000e+01 0.000000e+00
      vertex   -2.000000e+01 1.000000e+01 -1.000000e+00
      vertex   -2.000000e+01 1.000000e+01 0.000000e+00
    endloop
  endfacet
  facet normal -7.071068e-01 0.000000e+00 0.000000e+00
    outer loop
      vertex   -2.000000e+01 2.400000e+01 3.000000e+00
      vertex   -2.000000e+01 2.550000e+01 1.500000e+00
      vertex   -2.000000e+01 2.400000e+01 0.000000e+00
    endloop
  endfacet
  facet normal -7.071068e-01 0.000000e+00 0.000000e+00
    outer loop
      vertex   -2.000000e+01 2.400000e+01 0.000000e+00
      vertex   -2.000000e+01 2.550000e+01 1.500000e+00
      vertex   -2.000000e+01 2.550000e+01 0.000000e+00
    endloop
  endfacet
  facet normal -5.547003e-01 0.000000e+00 0.000000e+00
    outer loop
      vertex   -2.000000e+01 2.400000e+01 0.000000e+00
      vertex   -2.000000e+01 2.550000e+01 0.000000e+00
      vertex   -2.000000e+01 3.000000e+01 -4.000000e+00
    endloop
  endfacet
  facet normal -4.665476e-01 0.000000e+00 0.000000e+00
    outer loop
      vertex   -2.000000e+01 3.000000e+01 -4.000000e+00
      vertex   -2.000000e+01 2.550000e+01 0.000000e+00
      vertex   -2.000000e+01 2.850000e+01 0.000000e+00
    endloop
  endfacet
  facet normal -3.511233e-01 0.000000e+00 0.000000e+00
    outer loop
      vertex   -2.000000e+01 3.000000e+01 -4.000000e+00
      vertex   -2.000000e+01 2.850000e+01 0.000000e+00
      vertex   -2.000000e+01 3.000000e+01 3.000000e+00
    endloop
  endfacet
  facet normal -3.162278e-01 0.000000e+00 0.000000e+00
    outer loop
      vertex   -2.000000e+01 3.000000e+01 3.000000e+00
      vertex   -2.000000e+01 2.850000e+01 0.000000e+00
      vertex   -2.000000e+01 2.850000e+01 1.500000e+00
    endloop
  endfacet
  facet normal -4.472136e-01 0.000000e+00 0.000000e+00
    outer loop
      vertex   -2.000000e+01 3.000000e+01 3.000000e+00
      vertex   -2.000000e+01 2.850000e+01 1.500000e+00
      vertex   -2.000000e+01 2.550000e+01 1.500000e+00
    endloop
  endfacet
  facet normal -7.071068e-01 0.000000e+00 0.000000e+00
    outer loop
      vertex   -2.000000e+01 2.400000e+01 3.000000e+00
      vertex   -2.000000e+01 3.000000e+01 3.000000e+00
      vertex   -2.000000e+01 2.550000e+01 1.500000e+00
    endloop
  endfacet
  facet normal -1.000000e+00 0.000000e+00 0.000000e+00
    outer loop
      vertex   -2.000000e+01 8.500000e+00 -4.000000e+00
      vertex   -2.000000e+01 8.500000e+00 -2.000000e+00
      vertex   -2.000000e+01 3.000000e+01 -4.000000e+00
    endloop
  endfacet
  facet normal -4.752485e-01 0.000000e+00 0.000000e+00
    outer loop
      vertex   -2.000000e+01 3.000000e+01 -4.000000e+00
      vertex   -2.000000e+01 8.500000e+00 -2.000000e+00
      vertex   -2.000000e+01 2.400000e+01 0.000000e+00
    endloop
  endfacet
  facet normal 0.000000e+00 0.000000e+00 9.155621e-01
    outer loop
      vertex   -1.248901e+01 2.226590e+01 0.000000e+00
      vertex   -1.250000e+01 2.250000e+01 0.000000e+00
      vertex   -1.700000e+01 2.400000e+01 0.000000e+00
    endloop
  endfacet
  facet normal 0.000000e+00 0.000000e+00 4.814364e-02
    outer loop
      vertex   -1.700000e+01 2.400000e+01 0.000000e+00
      vertex   -1.250000e+01 2.250000e+01 0.000000e+00
      vertex   -1.248901e+01 2.273410e+01 0.000000e+00
    endloop
  endfacet
  facet normal 0.000000e+00 0.000000e+00 4.984868e-02
    outer loop
      vertex   -1.700000e+01 2.400000e+01 0.000000e+00
      vertex   -1.248901e+01 2.273410e+01 0.000000e+00
      vertex   -1.245616e+01 2.296615e+01 0.000000e+00
    endloop
  endfacet
  facet normal 0.000000e+00 -0.000000e+00 9.999424e-01
    outer loop
      vertex   -1.245616e+01 2.296615e+01 0.000000e+00
      vertex   -1.240171e+01 2.319410e+01 0.000000e+00
      vertex   -1.700000e+01 2.400000e+01 0.000000e+00
    endloop
  endfacet
  facet normal 0.000000e+00 0.000000e+00 4.916213e-02
    outer loop
      vertex   -1.700000e+01 2.400000e+01 0.000000e+00
      vertex   -1.240171e+01 2.319410e+01 0.000000e+00
      vertex   -1.232616e+01 2.341595e+01 0.000000e+00
    endloop
  endfacet
  facet normal 0.000000e+00 0.000000e+00 4.683213e-02
    outer loop
      vertex   -1.700000e+01 2.400000e+01 0.000000e+00
      vertex   -1.232616e+01 2.341595e+01 0.000000e+00
      vertex   -1.223017e+01 2.362975e+01 0.000000e+00
    endloop
  endfacet
  facet normal -0.000000e+00 0.000000e+00 9.970009e-01
    outer loop
      vertex   -1.700000e+01 2.400000e+01 0.000000e+00
      vertex   -1.223017e+01 2.362975e+01 0.000000e+00
      vertex   -1.700000e+01 2.550000e+01 0.000000e+00
    endloop
  endfacet
  facet normal 0.000000e+00 0.000000e+00 4.494544e-02
    outer loop
      vertex   -1.700000e+01 2.550000e+01 0.000000e+00
      vertex   -1.223017e+01 2.362975e+01 0.000000e+00
      vertex   -1.211458e+01 2.383362e+01 0.000000e+00
    endloop
  endfacet
  facet normal 0.000000e+00 0.000000e+00 4.304208e-02
    outer loop
      vertex   -1.700000e+01 2.550000e+01 0.000000e+00
      vertex   -1.211458e+01 2.383362e+01 0.000000e+00
      vertex   -1.198041e+01 2.402578e+01 0.000000e+00
    endloop
  endfacet
  facet normal 0.000000e+00 -0.000000e+00 9.140331e-01
    outer loop
      vertex   -1.198041e+01 2.402578e+01 0.000000e+00
      vertex   -1.182883e+01 2.420452e+01 0.000000e+00
      vertex   -1.700000e+01 2.550000e+01 0.000000e+00
    endloop
  endfacet
  facet normal 0.000000e+00 0.000000e+00 3.657322e-02
    outer loop
      vertex   -1.700000e+01 2.550000e+01 0.000000e+00
      vertex   -1.182883e+01 2.420452e+01 0.000000e+00
      vertex   -1.166118e+01 2.436828e+01 0.000000e+00
    endloop
  endfacet
  facet normal -0.000000e+00 0.000000e+00 9.782624e-01
    outer loop
      vertex   -1.700000e+01 2.550000e+01 0.000000e+00
      vertex   -1.166118e+01 2.436828e+01 0.000000e+00
      vertex   -1.700000e+01 2.850000e+01 0.000000e+00
    endloop
  endfacet
  facet normal 0.000000e+00 0.000000e+00 3.349689e-02
    outer loop
      vertex   -1.700000e+01 2.850000e+01 0.000000e+00
      vertex   -1.166118e+01 2.436828e+01 0.000000e+00
      vertex   -1.147893e+01 2.451563e+01 0.000000e+00
    endloop
  endfacet
  facet normal 0.000000e+00 0.000000e+00 3.181818e-02
    outer loop
      vertex   -1.700000e+01 2.850000e+01 0.000000e+00
      vertex   -1.147893e+01 2.451563e+01 0.000000e+00
      vertex   -1.128369e+01 2.464526e+01 0.000000e+00
    endloop
  endfacet
  facet normal 0.000000e+00 -0.000000e+00 8.846007e-01
    outer loop
      vertex   -1.128369e+01 2.464526e+01 0.000000e+00
      vertex   -1.107716e+01 2.475604e+01 0.000000e+00
      vertex   -1.700000e+01 2.850000e+01 0.000000e+00
    endloop
  endfacet
  facet normal 0.000000e+00 0.000000e+00 2.691824e-02
    outer loop
      vertex   -1.700000e+01 2.850000e+01 0.000000e+00
      vertex   -1.107716e+01 2.475604e+01 0.000000e+00
      vertex   -1.086117e+01 2.484700e+01 0.000000e+00
    endloop
  endfacet
  facet normal -0.000000e+00 0.000000e+00 8.593582e-01
    outer loop
      vertex   -1.700000e+01 2.850000e+01 0.000000e+00
      vertex   -1.086117e+01 2.484700e+01 0.000000e+00
      vertex   -1.700000e+01 3.000000e+01 0.000000e+00
    endloop
  endfacet
  facet normal 0.000000e+00 0.000000e+00 2.426517e-02
    outer loop
      vertex   -1.700000e+01 3.000000e+01 0.000000e+00
      vertex   -1.086117e+01 2.484700e+01 0.000000e+00
      vertex   -1.063761e+01 2.491732e+01 0.000000e+00
    endloop
  endfacet
  facet normal 0.000000e+00 0.000000e+00 2.187001e-02
    outer loop
      vertex   -1.700000e+01 3.000000e+01 0.000000e+00
      vertex   -1.063761e+01 2.491732e+01 0.000000e+00
      vertex   -1.040844e+01 2.496641e+01 0.000000e+00
    endloop
  endfacet
  facet normal 0.000000e+00 -0.000000e+00 6.956999e-01
    outer loop
      vertex   -1.040844e+01 2.496641e+01 0.000000e+00
      vertex   -1.017569e+01 2.499382e+01 0.000000e+00
      vertex   -1.700000e+01 3.000000e+01 0.000000e+00
    endloop
  endfacet
  facet normal 0.000000e+00 0.000000e+00 1.653270e-02
    outer loop
      vertex   -1.700000e+01 3.000000e+01 0.000000e+00
      vertex   -1.017569e+01 2.499382e+01 0.000000e+00
      vertex   -9.941394e+00 2.499931e+01 0.000000e+00
    endloop
  endfacet
  facet normal 0.000000e+00 0.000000e+00 1.374960e-02
    outer loop
      vertex   -1.700000e+01 3.000000e+01 0.000000e+00
      vertex   -9.941394e+00 2.499931e+01 0.000000e+00
      vertex   -9.707612e+00 2.498284e+01 0.000000e+00
    endloop
  endfacet
  facet normal 0.000000e+00 0.000000e+00 5.668081e-01
    outer loop
      vertex   -1.700000e+01 3.000000e+01 0.000000e+00
      vertex   -9.707612e+00 2.498284e+01 0.000000e+00
      vertex   0.000000e+00 3.000000e+01 0.000000e+00
    endloop
  endfacet
  facet normal 0.000000e+00 0.000000e+00 1.305079e-02
    outer loop
      vertex   0.000000e+00 3.000000e+01 0.000000e+00
      vertex   -9.707612e+00 2.498284e+01 0.000000e+00
      vertex   -9.476399e+00 2.494455e+01 0.000000e+00
    endloop
  endfacet
  facet normal 0.000000e+00 0.000000e+00 1.508050e-02
    outer loop
      vertex   0.000000e+00 3.000000e+01 0.000000e+00
      vertex   -9.476399e+00 2.494455e+01 0.000000e+00
      vertex   -9.249788e+00 2.488478e+01 0.000000e+00
    endloop
  endfacet
  facet normal -0.000000e+00 0.000000e+00 7.557616e-01
    outer loop
      vertex   -9.249788e+00 2.488478e+01 0.000000e+00
      vertex   -9.029770e+00 2.480405e+01 0.000000e+00
      vertex   0.000000e+00 3.000000e+01 0.000000e+00
    endloop
  endfacet
  facet normal 0.000000e+00 0.000000e+00 1.876219e-02
    outer loop
      vertex   0.000000e+00 3.000000e+01 0.000000e+00
      vertex   -9.029770e+00 2.480405e+01 0.000000e+00
      vertex   -8.818278e+00 2.470307e+01 0.000000e+00
    endloop
  endfacet
  facet normal 0.000000e+00 0.000000e+00 2.030868e-02
    outer loop
      vertex   0.000000e+00 3.000000e+01 0.000000e+00
      vertex   -8.818278e+00 2.470307e+01 0.000000e+00
      vertex   -8.617172e+00 2.458274e+01 0.000000e+00
    endloop
  endfacet
  facet normal -0.000000e+00 0.000000e+00 9.299338e-01
    outer loop
      vertex   -8.617172e+00 2.458274e+01 0.000000e+00
      vertex   -8.428218e+00 2.444409e+01 0.000000e+00
      vertex   0.000000e+00 3.000000e+01 0.000000e+00
    endloop
  endfacet
  facet normal 0.000000e+00 0.000000e+00 2.255830e-02
    outer loop
      vertex   0.000000e+00 3.000000e+01 0.000000e+00
      vertex   -8.428218e+00 2.444409e+01 0.000000e+00
      vertex   -8.253077e+00 2.428837e+01 0.000000e+00
    endloop
  endfacet
  facet normal 0.000000e+00 0.000000e+00 2.317782e-02
    outer loop
      vertex   0.000000e+00 3.000000e+01 0.000000e+00
      vertex   -8.253077e+00 2.428837e+01 0.000000e+00
      vertex   -8.093287e+00 2.411692e+01 0.000000e+00
    endloop
  endfacet
  facet normal -0.000000e+00 0.000000e+00 9.996109e-01
    outer loop
      vertex   -8.093287e+00 2.411692e+01 0.000000e+00
      vertex   -7.950254e+00 2.393127e+01 0.000000e+00
      vertex   0.000000e+00 3.000000e+01 0.000000e+00
    endloop
  endfacet
  facet normal 0.000000e+00 0.000000e+00 2.328358e-02
    outer loop
      vertex   0.000000e+00 3.000000e+01 0.000000e+00
      vertex   -7.950254e+00 2.393127e+01 0.000000e+00
      vertex   -7.825234e+00 2.373304e+01 0.000000e+00
    endloop
  endfacet
  facet normal 0.000000e+00 0.000000e+00 2.276568e-02
    outer loop
      vertex   0.000000e+00 3.000000e+01 0.000000e+00
      vertex   -7.825234e+00 2.373304e+01 0.000000e+00
      vertex   -7.719326e+00 2.352398e+01 0.000000e+00
    endloop
  endfacet
  facet normal -0.000000e+00 0.000000e+00 9.483122e-01
    outer loop
      vertex   -7.719326e+00 2.352398e+01 0.000000e+00
      vertex   -7.633461e+00 2.330591e+01 0.000000e+00
      vertex   0.000000e+00 3.000000e+01 0.000000e+00
    endloop
  endfacet
  facet normal 0.000000e+00 0.000000e+00 2.069116e-02
    outer loop
      vertex   0.000000e+00 3.000000e+01 0.000000e+00
      vertex   -7.633461e+00 2.330591e+01 0.000000e+00
      vertex   -7.568393e+00 2.308076e+01 0.000000e+00
    endloop
  endfacet
  facet normal 0.000000e+00 0.000000e+00 1.921296e-02
    outer loop
      vertex   0.000000e+00 3.000000e+01 0.000000e+00
      vertex   -7.568393e+00 2.308076e+01 0.000000e+00
      vertex   -7.524693e+00 2.285051e+01 0.000000e+00
    endloop
  endfacet
  facet normal -0.000000e+00 0.000000e+00 7.862648e-01
    outer loop
      vertex   -7.524693e+00 2.285051e+01 0.000000e+00
      vertex   -7.502748e+00 2.261718e+01 0.000000e+00
      vertex   0.000000e+00 3.000000e+01 0.000000e+00
    endloop
  endfacet
  facet normal 0.000000e+00 0.000000e+00 1.562398e-02
    outer loop
      vertex   0.000000e+00 3.000000e+01 0.000000e+00
      vertex   -7.502748e+00 2.261718e+01 0.000000e+00
      vertex   -7.502748e+00 2.238282e+01 0.000000e+00
    endloop
  endfacet
  facet normal 0.000000e+00 0.000000e+00 1.361938e-02
    outer loop
      vertex   0.000000e+00 3.000000e+01 0.000000e+00
      vertex   -7.502748e+00 2.238282e+01 0.000000e+00
      vertex   -7.524693e+00 2.214949e+01 0.000000e+00
    endloop
  endfacet
  facet normal -0.000000e+00 0.000000e+00 5.452200e-01
    outer loop
      vertex   -7.524693e+00 2.214949e+01 0.000000e+00
      vertex   -7.568393e+00 2.191924e+01 0.000000e+00
      vertex   0.000000e+00 3.000000e+01 0.000000e+00
    endloop
  endfacet
  facet normal 0.000000e+00 0.000000e+00 6.835890e-01
    outer loop
      vertex   0.000000e+00 3.000000e+01 0.000000e+00
      vertex   -7.568393e+00 2.191924e+01 0.000000e+00
      vertex   0.000000e+00 1.000000e+01 0.000000e+00
    endloop
  endfacet
  facet normal 0.000000e+00 0.000000e+00 1.257557e-02
    outer loop
      vertex   0.000000e+00 1.000000e+01 0.000000e+00
      vertex   -7.568393e+00 2.191924e+01 0.000000e+00
      vertex   -7.633461e+00 2.169409e+01 0.000000e+00
    endloop
  endfacet
  facet normal 0.000000e+00 0.000000e+00 1.381709e-02
    outer loop
      vertex   0.000000e+00 1.000000e+01 0.000000e+00
      vertex   -7.633461e+00 2.169409e+01 0.000000e+00
      vertex   -7.719326e+00 2.147602e+01 0.000000e+00
    endloop
  endfacet
  facet normal 0.000000e+00 0.000000e+00 8.728568e-01
    outer loop
      vertex   -7.719326e+00 2.147602e+01 0.000000e+00
      vertex   -7.825234e+00 2.126696e+01 0.000000e+00
      vertex   0.000000e+00 1.000000e+01 0.000000e+00
    endloop
  endfacet
  facet normal 0.000000e+00 0.000000e+00 1.583229e-02
    outer loop
      vertex   0.000000e+00 1.000000e+01 0.000000e+00
      vertex   -7.825234e+00 2.126696e+01 0.000000e+00
      vertex   -7.950254e+00 2.106873e+01 0.000000e+00
    endloop
  endfacet
  facet normal 0.000000e+00 0.000000e+00 1.655123e-02
    outer loop
      vertex   0.000000e+00 1.000000e+01 0.000000e+00
      vertex   -7.950254e+00 2.106873e+01 0.000000e+00
      vertex   -8.093287e+00 2.088308e+01 0.000000e+00
    endloop
  endfacet
  facet normal 0.000000e+00 0.000000e+00 9.836389e-01
    outer loop
      vertex   -8.093287e+00 2.088308e+01 0.000000e+00
      vertex   -8.253077e+00 2.071163e+01 0.000000e+00
      vertex   0.000000e+00 1.000000e+01 0.000000e+00
    endloop
  endfacet
  facet normal 0.000000e+00 0.000000e+00 1.730710e-02
    outer loop
      vertex   0.000000e+00 1.000000e+01 0.000000e+00
      vertex   -8.253077e+00 2.071163e+01 0.000000e+00
      vertex   -8.428218e+00 2.055591e+01 0.000000e+00
    endloop
  endfacet
  facet normal 0.000000e+00 0.000000e+00 1.732072e-02
    outer loop
      vertex   0.000000e+00 1.000000e+01 0.000000e+00
      vertex   -8.428218e+00 2.055591e+01 0.000000e+00
      vertex   -8.617172e+00 2.041726e+01 0.000000e+00
    endloop
  endfacet
  facet normal 0.000000e+00 0.000000e+00 9.884886e-01
    outer loop
      vertex   -8.617172e+00 2.041726e+01 0.000000e+00
      vertex   -8.818278e+00 2.029693e+01 0.000000e+00
      vertex   0.000000e+00 1.000000e+01 0.000000e+00
    endloop
  endfacet
  facet normal 0.000000e+00 0.000000e+00 1.661710e-02
    outer loop
      vertex   0.000000e+00 1.000000e+01 0.000000e+00
      vertex   -8.818278e+00 2.029693e+01 0.000000e+00
      vertex   -9.029770e+00 2.019595e+01 0.000000e+00
    endloop
  endfacet
  facet normal 0.000000e+00 0.000000e+00 1.592155e-02
    outer loop
      vertex   0.000000e+00 1.000000e+01 0.000000e+00
      vertex   -9.029770e+00 2.019595e+01 0.000000e+00
      vertex   -9.249788e+00 2.011522e+01 0.000000e+00
    endloop
  endfacet
  facet normal 0.000000e+00 0.000000e+00 8.856779e-01
    outer loop
      vertex   -9.249788e+00 2.011522e+01 0.000000e+00
      vertex   -9.476399e+00 2.005545e+01 0.000000e+00
      vertex   0.000000e+00 1.000000e+01 0.000000e+00
    endloop
  endfacet
  facet normal 0.000000e+00 0.000000e+00 1.394528e-02
    outer loop
      vertex   0.000000e+00 1.000000e+01 0.000000e+00
      vertex   -9.476399e+00 2.005545e+01 0.000000e+00
      vertex   -9.707612e+00 2.001716e+01 0.000000e+00
    endloop
  endfacet
  facet normal 0.000000e+00 0.000000e+00 1.271832e-02
    outer loop
      vertex   0.000000e+00 1.000000e+01 0.000000e+00
      vertex   -9.707612e+00 2.001716e+01 0.000000e+00
      vertex   -9.941394e+00 2.000069e+01 0.000000e+00
    endloop
  endfacet
  facet normal 0.000000e+00 0.000000e+00 7.092060e-01
    outer loop
      vertex   0.000000e+00 1.000000e+01 0.000000e+00
      vertex   -9.941394e+00 2.000069e+01 0.000000e+00
      vertex   -2.000000e+01 1.000000e+01 0.000000e+00
    endloop
  endfacet
  facet normal 0.000000e+00 0.000000e+00 1.205821e-02
    outer loop
      vertex   -2.000000e+01 1.000000e+01 0.000000e+00
      vertex   -9.941394e+00 2.000069e+01 0.000000e+00
      vertex   -1.017569e+01 2.000618e+01 0.000000e+00
    endloop
  endfacet
  facet normal 0.000000e+00 0.000000e+00 1.334855e-02
    outer loop
      vertex   -2.000000e+01 1.000000e+01 0.000000e+00
      vertex   -1.017569e+01 2.000618e+01 0.000000e+00
      vertex   -1.040844e+01 2.003359e+01 0.000000e+00
    endloop
  endfacet
  facet normal 0.000000e+00 0.000000e+00 8.515449e-01
    outer loop
      vertex   -1.040844e+01 2.003359e+01 0.000000e+00
      vertex   -1.063761e+01 2.008268e+01 0.000000e+00
      vertex   -2.000000e+01 1.000000e+01 0.000000e+00
    endloop
  endfacet
  facet normal 0.000000e+00 0.000000e+00 1.549598e-02
    outer loop
      vertex   -2.000000e+01 1.000000e+01 0.000000e+00
      vertex   -1.063761e+01 2.008268e+01 0.000000e+00
      vertex   -1.086117e+01 2.015300e+01 0.000000e+00
    endloop
  endfacet
  facet normal 0.000000e+00 0.000000e+00 1.629618e-02
    outer loop
      vertex   -2.000000e+01 1.000000e+01 0.000000e+00
      vertex   -1.086117e+01 2.015300e+01 0.000000e+00
      vertex   -1.107716e+01 2.024396e+01 0.000000e+00
    endloop
  endfacet
  facet normal 0.000000e+00 0.000000e+00 9.749637e-01
    outer loop
      vertex   -1.107716e+01 2.024396e+01 0.000000e+00
      vertex   -1.128369e+01 2.035474e+01 0.000000e+00
      vertex   -2.000000e+01 1.000000e+01 0.000000e+00
    endloop
  endfacet
  facet normal 0.000000e+00 0.000000e+00 1.723489e-02
    outer loop
      vertex   -2.000000e+01 1.000000e+01 0.000000e+00
      vertex   -1.128369e+01 2.035474e+01 0.000000e+00
      vertex   -1.147893e+01 2.048437e+01 0.000000e+00
    endloop
  endfacet
  facet normal 0.000000e+00 0.000000e+00 1.734487e-02
    outer loop
      vertex   -2.000000e+01 1.000000e+01 0.000000e+00
      vertex   -1.147893e+01 2.048437e+01 0.000000e+00
      vertex   -1.166118e+01 2.063172e+01 0.000000e+00
    endloop
  endfacet
  facet normal 0.000000e+00 0.000000e+00 9.941131e-01
    outer loop
      vertex   -1.166118e+01 2.063172e+01 0.000000e+00
      vertex   -1.182883e+01 2.079548e+01 0.000000e+00
      vertex   -2.000000e+01 1.000000e+01 0.000000e+00
    endloop
  endfacet
  facet normal 0.000000e+00 0.000000e+00 1.682840e-02
    outer loop
      vertex   -2.000000e+01 1.000000e+01 0.000000e+00
      vertex   -1.182883e+01 2.079548e+01 0.000000e+00
      vertex   -1.198041e+01 2.097422e+01 0.000000e+00
    endloop
  endfacet
  facet normal 0.000000e+00 0.000000e+00 4.077460e-01
    outer loop
      vertex   -2.000000e+01 1.000000e+01 0.000000e+00
      vertex   -1.198041e+01 2.097422e+01 0.000000e+00
      vertex   -1.700000e+01 2.400000e+01 0.000000e+00
    endloop
  endfacet
  facet normal 0.000000e+00 0.000000e+00 1.687368e-02
    outer loop
      vertex   -1.700000e+01 2.400000e+01 0.000000e+00
      vertex   -1.198041e+01 2.097422e+01 0.000000e+00
      vertex   -1.211458e+01 2.116638e+01 0.000000e+00
    endloop
  endfacet
  facet normal 0.000000e+00 0.000000e+00 2.173039e-02
    outer loop
      vertex   -1.700000e+01 2.400000e+01 0.000000e+00
      vertex   -1.211458e+01 2.116638e+01 0.000000e+00
      vertex   -1.223017e+01 2.137025e+01 0.000000e+00
    endloop
  endfacet
  facet normal 0.000000e+00 0.000000e+00 6.011399e-01
    outer loop
      vertex   -1.223017e+01 2.137025e+01 0.000000e+00
      vertex   -1.232616e+01 2.158405e+01 0.000000e+00
      vertex   -1.700000e+01 2.400000e+01 0.000000e+00
    endloop
  endfacet
  facet normal 0.000000e+00 0.000000e+00 3.187228e-02
    outer loop
      vertex   -1.700000e+01 2.400000e+01 0.000000e+00
      vertex   -1.232616e+01 2.158405e+01 0.000000e+00
      vertex   -1.240171e+01 2.180590e+01 0.000000e+00
    endloop
  endfacet
  facet normal 0.000000e+00 0.000000e+00 3.681759e-02
    outer loop
      vertex   -1.700000e+01 2.400000e+01 0.000000e+00
      vertex   -1.240171e+01 2.180590e+01 0.000000e+00
      vertex   -1.245616e+01 2.203385e+01 0.000000e+00
    endloop
  endfacet
  facet normal 0.000000e+00 0.000000e+00 8.530229e-01
    outer loop
      vertex   -1.245616e+01 2.203385e+01 0.000000e+00
      vertex   -1.248901e+01 2.226590e+01 0.000000e+00
      vertex   -1.700000e+01 2.400000e+01 0.000000e+00
    endloop
  endfacet
  facet normal 0.000000e+00 0.000000e+00 1.000000e+00
    outer loop
      vertex   -1.700000e+01 2.850000e+01 0.000000e+00
      vertex   -2.000000e+01 2.850000e+01 0.000000e+00
      vertex   -1.700000e+01 2.550000e+01 0.000000e+00
    endloop
  endfacet
  facet normal 0.000000e+00 0.000000e+00 7.071068e-01
    outer loop
      vertex   -1.700000e+01 2.550000e+01 0.000000e+00
      vertex   -2.000000e+01 2.850000e+01 0.000000e+00
      vertex   -2.000000e+01 2.550000e+01 0.000000e+00
    endloop
  endfacet
  facet normal 0.000000e+00 0.000000e+00 9.778024e-01
    outer loop
      vertex   -1.700000e+01 2.400000e+01 0.000000e+00
      vertex   -2.000000e+01 2.400000e+01 0.000000e+00
      vertex   -2.000000e+01 1.000000e+01 0.000000e+00
    endloop
  endfacet
endsolid
